<svg width="16" height="16" viewBox="0 0 16 16" fill="none" xmlns="http://www.w3.org/2000/svg">
<path d="M2.59473 5.95784C2.24475 6.1639 1.94785 6.45226 1.72852 6.79768C1.50926 7.14307 1.37358 7.53519 1.33301 7.94417C1.33301 9.77729 4.31439 11.3854 7.76465 11.4559L6.4834 10.159L7.18652 9.44612L9.11523 11.4071C12.1789 11.1107 14.668 9.62205 14.668 7.94612C14.6274 7.53678 14.4922 7.14321 14.2725 6.79768C14.0527 6.45209 13.7549 6.16359 13.4043 5.95784V4.87386C13.995 5.15092 14.5046 5.58116 14.8818 6.11995C15.2591 6.65872 15.4916 7.28803 15.5557 7.94612C15.5557 10.1858 12.7111 12.032 9.0166 12.3221L7.18652 14.1844L6.4834 13.4676L7.58203 12.3543C3.60666 12.2268 0.444336 10.3021 0.444336 7.94417C0.508463 7.28615 0.740952 6.65672 1.11816 6.118C1.49539 5.57935 2.00412 5.14894 2.59473 4.8719V5.95784ZM8.94336 2.6805H8.66406C8.4785 2.67159 8.29279 2.7073 8.12305 2.78401C7.95367 2.86064 7.80417 2.97626 7.68652 3.1219C7.52716 3.33099 7.41465 3.57384 7.35742 3.83186L7.375 3.82112C7.58488 3.7005 7.82239 3.63821 8.06348 3.64046C8.27216 3.63559 8.4795 3.68386 8.66504 3.78108C8.8503 3.87824 9.00891 4.02078 9.12598 4.19612C9.35394 4.54325 9.48185 4.94738 9.49707 5.36214V5.72639C9.48134 6.15706 9.34667 6.57627 9.10645 6.9344C8.98542 7.11318 8.82252 7.25866 8.63281 7.35823C8.44305 7.45781 8.23208 7.50797 8.01855 7.50471C7.79027 7.50752 7.5647 7.4529 7.3623 7.34554C7.16 7.23817 6.98665 7.08136 6.8584 6.88948C6.56262 6.44432 6.41522 5.91446 6.4375 5.37776V4.96468C6.38999 4.17026 6.58172 3.37982 6.9873 2.69905C7.17068 2.43138 7.41674 2.21337 7.70312 2.06624C7.98939 1.91918 8.3073 1.8467 8.62793 1.8553H8.94336V2.6805ZM11.208 1.82112C11.4389 1.81375 11.6681 1.87033 11.8701 1.98421C12.072 2.09808 12.2394 2.26569 12.3555 2.46858C12.6293 2.98747 12.76 3.57179 12.7334 4.15999V5.08675C12.7667 5.69404 12.6427 6.29963 12.373 6.84261C12.2525 7.04435 12.0823 7.21124 11.8799 7.32698C11.6777 7.44258 11.4498 7.50366 11.2178 7.50374C10.9856 7.50374 10.757 7.44267 10.5547 7.32698C10.3523 7.21124 10.1821 7.04435 10.0615 6.84261C9.78907 6.31456 9.66147 5.7213 9.69141 5.12581V4.22932C9.65683 3.62821 9.77949 3.02835 10.0469 2.49104C10.1605 2.2811 10.3292 2.1073 10.5342 1.98909C10.7392 1.87095 10.9725 1.81247 11.208 1.82112ZM4.60645 1.82112C4.80524 1.81293 5.00346 1.84877 5.1875 1.92561C5.37146 2.00244 5.53715 2.11864 5.67285 2.26643C5.95074 2.59771 6.0931 3.02506 6.07031 3.45979C6.07289 3.74583 5.99258 4.02716 5.83984 4.26741C5.76767 4.38254 5.68001 4.4869 5.5791 4.57698C5.70635 4.66953 5.81584 4.78527 5.90234 4.9178C6.07065 5.18735 6.15558 5.50199 6.14648 5.82112C6.16597 6.26466 6.01654 6.6984 5.72949 7.03304C5.58832 7.18743 5.41615 7.30971 5.22461 7.39046C5.03327 7.47106 4.82711 7.50925 4.62012 7.50179C4.34027 7.50424 4.06443 7.4319 3.82031 7.2928C3.57707 7.15502 3.37838 6.9473 3.25 6.69612C3.11436 6.42797 3.04647 6.12941 3.05273 5.82796V5.60237H3.87988V5.82796C3.86808 6.05835 3.94279 6.28504 4.08984 6.46077C4.15556 6.53659 4.23756 6.59616 4.3291 6.63557C4.42063 6.67498 4.51985 6.69309 4.61914 6.68831C4.71382 6.69535 4.80894 6.68117 4.89746 6.64632C4.98613 6.61133 5.06651 6.55644 5.13184 6.48616C5.27088 6.30025 5.3376 6.06856 5.31934 5.83577C5.33644 5.61361 5.26633 5.39297 5.12402 5.22346C5.04186 5.15096 4.94603 5.09624 4.84277 5.06136C4.73965 5.02652 4.63084 5.01231 4.52246 5.02034H3.92969V4.20784H4.52734C4.62344 4.21205 4.71981 4.19609 4.80957 4.16096C4.89925 4.12583 4.98037 4.07134 5.04883 4.00276C5.11691 3.92862 5.16937 3.84136 5.20312 3.74593C5.2369 3.6504 5.25122 3.54842 5.24512 3.4471C5.25901 3.22587 5.19614 3.00688 5.06738 2.82796C5.00525 2.76558 4.93168 2.71635 4.85059 2.68343C4.76938 2.65052 4.68212 2.63377 4.59473 2.63557C4.50721 2.63743 4.42072 2.65781 4.34082 2.69417C4.26092 2.73053 4.18856 2.78236 4.12891 2.84749C3.99394 3.01837 3.92652 3.23415 3.93848 3.45296V3.67854H3.1123V3.45296C3.10908 3.16832 3.173 2.88694 3.29883 2.63264C3.41777 2.38757 3.60271 2.18152 3.83203 2.03889C4.06502 1.89433 4.33349 1.81887 4.60645 1.82112ZM8.03125 4.45296C7.94252 4.44507 7.85286 4.45712 7.76953 4.48909C7.68615 4.52111 7.6103 4.57193 7.54883 4.63753C7.41192 4.75236 7.31201 4.90658 7.2627 5.07991V5.41389C7.24724 5.75022 7.33071 6.0837 7.50195 6.3719C7.55231 6.46685 7.62702 6.54646 7.71777 6.60237C7.80856 6.65828 7.91241 6.68885 8.01855 6.69026C8.11153 6.68923 8.2029 6.66242 8.28223 6.61311C8.36137 6.56384 8.42553 6.49347 8.46875 6.40999C8.61759 6.15215 8.68985 5.8561 8.67676 5.55745C8.69155 5.26399 8.62115 4.97226 8.47363 4.71956C8.42432 4.64416 8.3588 4.58122 8.28223 4.53499C8.2057 4.4888 8.1199 4.4609 8.03125 4.45296ZM11.2188 2.6346C11.1161 2.63317 11.015 2.66169 10.9277 2.71663C10.8403 2.77165 10.7701 2.85094 10.7256 2.94514C10.5671 3.30846 10.4945 3.7044 10.5127 4.10139V5.12971C10.4913 5.54601 10.5637 5.96169 10.7236 6.34554C10.7607 6.44757 10.8279 6.53585 10.916 6.59749C11.0041 6.65899 11.1089 6.69158 11.2158 6.69026C11.3176 6.69086 11.4172 6.66054 11.502 6.60335C11.5867 6.5461 11.6535 6.46457 11.6924 6.36897C11.8517 5.99228 11.9242 5.58322 11.9053 5.17366V4.17073C11.9291 3.75685 11.8598 3.34259 11.7031 2.95979C11.6613 2.86432 11.5936 2.78299 11.5078 2.72542C11.422 2.66789 11.3215 2.63612 11.2188 2.6346ZM14.3193 1.85823C14.5251 1.89782 14.7152 1.99783 14.8652 2.14632C14.9654 2.24769 15.0442 2.36877 15.0977 2.50179C15.1511 2.63493 15.1776 2.77793 15.1758 2.92171C15.1781 3.06441 15.1521 3.20633 15.0996 3.3387C15.0471 3.47096 14.9691 3.59111 14.8701 3.69221C14.7736 3.79504 14.6573 3.87659 14.5283 3.93147C14.3994 3.98632 14.2608 4.01379 14.1211 4.01155C13.9807 4.01155 13.8416 3.98327 13.7119 3.92854C13.5823 3.87378 13.4643 3.79331 13.3652 3.69221C13.2662 3.59102 13.1871 3.47077 13.1338 3.3387C13.0805 3.20654 13.054 3.06454 13.0547 2.92171C13.055 2.70877 13.1165 2.50041 13.2324 2.32307C13.3485 2.14571 13.5139 2.00734 13.707 1.92464C13.9002 1.84194 14.1134 1.8187 14.3193 1.85823ZM14.1191 2.59846C14.0781 2.59694 14.0371 2.60439 13.999 2.61995C13.961 2.63551 13.926 2.65839 13.8975 2.68831C13.866 2.71803 13.8419 2.75661 13.8262 2.79866C13.8105 2.84074 13.8038 2.88559 13.8066 2.9305C13.8053 2.97241 13.8119 3.01458 13.8271 3.05354C13.8424 3.09256 13.8661 3.12848 13.8955 3.15804C13.9542 3.21597 14.0334 3.24788 14.1152 3.24788C14.1969 3.24776 14.2754 3.21585 14.334 3.15804C14.3632 3.12779 14.3861 3.09101 14.4014 3.05159C14.4165 3.01238 14.4239 2.97065 14.4229 2.92854C14.4246 2.88472 14.4175 2.84068 14.4023 2.79964C14.3871 2.75851 14.3638 2.72012 14.334 2.68831C14.307 2.65823 14.2734 2.63453 14.2363 2.61897C14.1992 2.60345 14.1592 2.59648 14.1191 2.59846Z" fill="currentColor"/>
</svg>
