<svg width="24" height="24" viewBox="0 0 24 24" fill="none" xmlns="http://www.w3.org/2000/svg">
<path d="M1.5498 13C1.72443 14.8096 2.36661 16.5427 3.41309 18.0293C4.45967 19.5159 5.8748 20.7058 7.51953 21.4805L8.84961 20.1602L12.6602 23.9697L12 24C8.99154 23.9993 6.09335 22.8676 3.87988 20.8301C1.6665 18.7926 0.299125 15.998 0.0498047 13H1.5498ZM8.38965 8C8.73456 7.99817 9.07849 8.04496 9.41016 8.13965C9.69487 8.22563 9.95714 8.37302 10.1797 8.57031C10.4034 8.75527 10.5792 8.99164 10.6904 9.25977C10.8151 9.5641 10.876 9.89091 10.8701 10.2197C10.8714 10.3824 10.8475 10.5447 10.7998 10.7002C10.7492 10.8633 10.6753 11.0184 10.5801 11.1602C10.4764 11.3163 10.3517 11.4575 10.21 11.5801C10.0539 11.7149 9.8789 11.8263 9.69043 11.9102C9.90939 11.9787 10.1154 12.0832 10.2998 12.2197C10.4558 12.3402 10.5913 12.4861 10.7002 12.6504C10.8049 12.8062 10.8823 12.9786 10.9297 13.1602C10.9781 13.3427 11.0019 13.5309 11 13.7197C11.0034 14.0536 10.935 14.3851 10.7998 14.6904C10.6746 14.9696 10.4865 15.216 10.25 15.4102C10.0045 15.6092 9.72245 15.7581 9.41992 15.8496C9.08642 15.9526 8.73868 16.0036 8.38965 16C8.06376 16.0022 7.73937 15.9511 7.42969 15.8496C7.13395 15.7641 6.85617 15.6257 6.61035 15.4404C6.37891 15.2507 6.18785 15.0155 6.0498 14.75C5.90446 14.4548 5.83244 14.1287 5.83984 13.7998H7.13965C7.1376 13.9609 7.1691 14.1206 7.23047 14.2695C7.28745 14.4112 7.37623 14.538 7.49023 14.6396C7.60419 14.748 7.74041 14.8303 7.88965 14.8799C8.05766 14.9339 8.23368 14.961 8.41016 14.96C8.58253 14.9719 8.75573 14.9493 8.91895 14.8926C9.08219 14.8359 9.23247 14.7461 9.36035 14.6299C9.48157 14.5089 9.57541 14.3634 9.63574 14.2031C9.69609 14.0428 9.72139 13.8712 9.70996 13.7002C9.71619 13.5053 9.68254 13.311 9.61035 13.1299C9.54312 12.9777 9.44398 12.8417 9.32031 12.7305C9.18837 12.6228 9.0347 12.5439 8.87012 12.5C8.67418 12.4498 8.47177 12.4259 8.26953 12.4297H7.5V11.4004H8.26953C8.46657 11.4046 8.66311 11.3733 8.84961 11.3096C9.00006 11.2562 9.13951 11.1753 9.25977 11.0703C9.37381 10.9709 9.46003 10.8431 9.50977 10.7002C9.56302 10.5423 9.59012 10.3766 9.58984 10.21C9.60862 9.89651 9.50457 9.58768 9.2998 9.34961C9.18204 9.23809 9.04182 9.15302 8.88867 9.09961C8.73529 9.04618 8.57195 9.02576 8.41016 9.04004C8.24681 9.03974 8.0841 9.06686 7.92969 9.12012C7.79054 9.16914 7.66158 9.24355 7.5498 9.33984C7.44185 9.43271 7.35629 9.54896 7.2998 9.67969C7.23741 9.82131 7.20686 9.97516 7.20996 10.1299H5.91016C5.90693 9.8369 5.96816 9.54681 6.08984 9.28027C6.21605 9.02697 6.3891 8.7995 6.59961 8.61035C6.83369 8.41421 7.10157 8.2615 7.38965 8.16016C7.71118 8.0497 8.04971 7.99541 8.38965 8ZM14.3604 8C14.86 7.99217 15.3565 8.08348 15.8203 8.26953C16.2497 8.44405 16.6377 8.70685 16.96 9.04004C17.2892 9.3847 17.5444 9.79327 17.71 10.2402C17.8876 10.7442 17.9754 11.2753 17.9697 11.8096V12.21C17.9755 12.7445 17.8877 13.2762 17.71 13.7803C17.5493 14.2242 17.2969 14.6293 16.9697 14.9697C16.6413 15.3024 16.2457 15.5622 15.8096 15.7305C15.3281 15.9155 14.8155 16.0068 14.2998 16H12V8H14.3604ZM14.3604 9.12012H13.3896V14.8896H14.2998C14.6384 14.8955 14.9751 14.8346 15.29 14.71C15.5657 14.5928 15.8092 14.4107 16 14.1797C16.1979 13.9276 16.3438 13.6389 16.4297 13.3301C16.5254 12.9612 16.5731 12.5813 16.5703 12.2002V11.7998C16.6184 11.0903 16.4164 10.386 16 9.80957C15.7993 9.57495 15.5463 9.39026 15.2617 9.27051C14.9771 9.15079 14.6684 9.09959 14.3604 9.12012ZM12 0C15.0063 -0.000937561 17.9033 1.12909 20.1152 3.16504C22.327 5.20096 23.6927 7.99434 23.9404 10.9902H22.4404C22.2684 9.18112 21.6279 7.44775 20.583 5.96094C19.5381 4.47418 18.1243 3.28443 16.4805 2.50977L15.1504 3.83984L11.3398 0.030274L12 0Z" fill="currentColor"/>
</svg>
