<svg width="16" height="16" viewBox="0 0 16 16" fill="none" xmlns="http://www.w3.org/2000/svg">
<path d="M10.6485 6.28284C11.3805 6.51346 12.048 6.9056 12.5987 7.42834C13.1495 7.95107 13.5693 8.5903 13.8243 9.29651C15.0324 12.0342 15.481 14.1847 14.3419 15.025C13.2024 15.8652 12.56 15.9959 7.99814 16.0006C3.43675 16.0053 2.78611 15.8576 1.65732 15.025C0.518164 14.1847 0.966771 12.0352 2.17587 9.29651C2.43087 8.59026 2.85071 7.95108 3.40146 7.42834C3.95224 6.90558 4.61957 6.51339 5.35165 6.28284H10.6485ZM5.48056 7.22619C4.92239 7.44316 4.41774 7.7735 4.00107 8.19494C3.58459 8.61629 3.26467 9.11872 3.06357 9.66955L3.06454 9.66858C1.45357 13.3183 2.02833 14.1168 2.24325 14.276C3.09893 14.9069 3.4738 15.0545 8.00107 15.0582C12.5288 15.062 12.9021 14.907 13.7569 14.276C13.9718 14.1168 14.5456 13.3183 12.9356 9.66858C12.7339 9.11758 12.4133 8.61516 11.9962 8.19397C11.5788 7.77267 11.0735 7.44267 10.5147 7.22619H5.48056ZM10.6485 5.72034H5.35165V4.77893H10.6485V5.72034ZM12.4688 0.00256148C12.541 -0.00446252 12.6137 0.00334488 12.6827 0.0250224C12.7518 0.0467307 12.8158 0.0817147 12.8702 0.128538C13.4562 0.765312 10.7255 4.19414 10.71 4.2135H5.28915C5.27733 4.19865 2.54456 0.765733 3.13095 0.128538C3.18525 0.0816506 3.24936 0.046726 3.31845 0.0250224C3.38752 0.00335531 3.46011 -0.0045951 3.53232 0.00256148C4.65989 0.00256148 7.41822 1.47543 7.99911 1.47619C8.57902 1.47619 11.339 0.00256148 12.4688 0.00256148ZM11.6651 1.13244C11.1152 1.31422 10.4452 1.59081 9.96982 1.78576C9.37014 2.08966 8.72576 2.30163 8.05966 2.41467H7.9454C7.27996 2.3013 6.63637 2.08936 6.0372 1.78576C5.56379 1.58986 4.8917 1.31514 4.33993 1.13244C4.76738 1.87543 5.24457 2.59017 5.76864 3.27209H10.2345C10.7591 2.59023 11.237 1.87541 11.6651 1.13244Z" fill="currentColor"/>
</svg>
