<svg width="16" height="16" viewBox="0 0 16 16" fill="none" xmlns="http://www.w3.org/2000/svg">
<path d="M5.80566 9.89453C6.08267 9.88245 6.359 9.93587 6.61133 10.0508C6.86374 10.1658 7.08509 10.3396 7.25781 10.5566C7.61908 11.0647 7.79702 11.6803 7.76172 12.3027V13.4326C7.79733 14.0517 7.62005 14.6642 7.25977 15.1689C7.07798 15.3726 6.85557 15.5359 6.60645 15.6475C6.35732 15.759 6.08741 15.8164 5.81445 15.8164C5.5415 15.8164 5.27158 15.759 5.02246 15.6475C4.77334 15.5359 4.55092 15.3726 4.36914 15.1689C4.005 14.6696 3.82284 14.0605 3.85449 13.4434V12.2871C3.81984 11.6663 3.99977 11.0524 4.36328 10.5479C4.53595 10.3338 4.7563 10.1632 5.00684 10.0498C5.25733 9.9364 5.53093 9.88307 5.80566 9.89453ZM3.65527 10.5967L1.19629 14.8828H3.75391V15.7393H0.0703125V15.0986L2.52246 10.8271H0.142578V9.9668H3.65527V10.5967ZM11.1797 13.8174L11.1807 9.9668H12.0625V15.7393H11.2725L9.14258 11.9004V15.7393H8.25293V9.9668H9.04688L11.1797 13.8174ZM15.9424 10.8359H13.5889V12.3516H15.6484V13.2041H13.5889V14.8828H15.957V15.7393H12.7021V9.97168H15.9424V10.8359ZM5.81348 10.7666C5.66801 10.7661 5.52383 10.796 5.39062 10.8545C5.2576 10.9129 5.13805 10.9982 5.04004 11.1055C4.81895 11.441 4.71333 11.8403 4.74023 12.2412V13.4268C4.70861 13.8377 4.81325 14.2477 5.03711 14.5938C5.12887 14.7102 5.24764 14.8033 5.38281 14.8643C5.48421 14.9099 5.59274 14.9363 5.70312 14.9434L5.92383 14.9453C6.034 14.94 6.1427 14.915 6.24414 14.8701C6.37943 14.8102 6.49786 14.7173 6.58887 14.6006V14.6045C6.8055 14.2519 6.90459 13.8393 6.87207 13.4268V12.2754C6.90316 11.8667 6.80254 11.4586 6.58496 11.1113C6.48771 11.0033 6.36898 10.9168 6.23633 10.8574C6.10345 10.7979 5.95906 10.7671 5.81348 10.7666ZM6.97559 8.07324H6.04785L5.58789 6.58984H3.94727L3.49414 8.07324H2.56543L4.40527 2.29688H5.13477L6.97559 8.07324ZM7.94629 7.21582H10.1318L10.1328 8.07324H7.05664V2.29688H7.94629V7.21582ZM11.2588 7.21582H13.4453V8.07324H10.3691V2.29688H11.2588V7.21582ZM4.21094 5.72852H5.32324L4.7666 3.91992L4.21094 5.72852ZM3.12988 0.942383H0.941406V3.13379H0V0H3.12988V0.942383ZM16 0V3.13379H15.0596V0.941406H12.8682V0L16 0Z" fill="currentColor"/>
</svg>
