<svg width="16" height="16" viewBox="0 0 16 16" fill="none" xmlns="http://www.w3.org/2000/svg">
<path d="M7.4812 14.25C7.4812 14.3825 7.53403 14.5098 7.62769 14.6035C7.72137 14.6972 7.84872 14.7499 7.9812 14.75C8.11373 14.75 8.24097 14.6972 8.33472 14.6035C8.42848 14.5097 8.4812 14.3826 8.4812 14.25H9.4812C9.4812 14.6478 9.32305 15.0292 9.04175 15.3105C8.76046 15.5917 8.37894 15.75 7.9812 15.75C7.5835 15.7499 7.20188 15.5918 6.92065 15.3105C6.63946 15.0293 6.4812 14.6477 6.4812 14.25H7.4812ZM7.9812 1.25C9.4556 1.2682 10.8632 1.8707 11.8943 2.9248C12.9251 3.97888 13.4956 5.39875 13.4812 6.87305V10.165C13.5091 11.3599 13.9767 12.5026 14.7937 13.375H14.7976L15.6814 14.2344H0.321045L1.16382 13.3809C1.96866 12.498 2.43501 11.3588 2.4812 10.165V6.87305C2.46679 5.39869 3.03816 3.97889 4.06909 2.9248C5.10005 1.87079 6.50693 1.26829 7.9812 1.25ZM7.9812 2.25C6.77221 2.268 5.61958 2.76452 4.77612 3.63086C3.93255 4.49749 3.46651 5.66373 3.4812 6.87305V10.165C3.46398 11.2574 3.13581 12.3226 2.53394 13.2344H13.4197C12.8187 12.3227 12.4926 11.2569 12.4812 10.165V6.87305C12.4959 5.66373 12.0308 4.49749 11.1873 3.63086C10.3437 2.76435 9.19038 2.26791 7.9812 2.25ZM8.4812 1.25H7.4812V0.25H8.4812V1.25Z" fill="currentColor"/>
</svg>
