<svg width="16" height="16" viewBox="0 0 16 16" fill="none" xmlns="http://www.w3.org/2000/svg">
<path d="M8 0C10.1217 0 12.1569 0.842482 13.6572 2.34277C15.1574 3.84299 15.9999 5.87842 16 8C16 10.1216 15.1573 12.157 13.6572 13.6572C12.1569 15.1575 10.1217 16 8 16C5.87827 16 3.84306 15.1575 2.34277 13.6572C0.842722 12.157 0 10.1216 0 8C0 5.87842 0.842626 3.84299 2.34277 2.34277C3.84306 0.842482 5.87827 0 8 0ZM3.35742 13.1436C4.6285 14.2965 6.28393 14.9348 8 14.9336C9.83816 14.9316 11.6006 14.2001 12.9004 12.9004C14.2002 11.6006 14.9316 9.83823 14.9336 8C14.9352 6.28368 14.2976 4.62866 13.1455 3.35645L3.35742 13.1436ZM7.99805 1.06738C6.16028 1.07021 4.39793 1.80186 3.09863 3.10156C1.79958 4.40118 1.06873 6.16246 1.06641 8C1.06441 9.5936 1.61436 11.1385 2.62207 12.373L12.3711 2.62402C11.1371 1.61539 9.59182 1.06567 7.99805 1.06738Z" fill="currentColor"/>
</svg>
