<svg width="16" height="16" viewBox="0 0 16 16" fill="none" xmlns="http://www.w3.org/2000/svg">
<path d="M5.60742 2V2.92285H16V14H0V2.92285H2.86328V2H5.60742ZM0.941406 6.61523V13.0771H15.0586V6.61523H13.5938C13.9331 7.17382 14.1133 7.81171 14.1172 8.46191C14.1171 9.44106 13.7206 10.3799 13.0146 11.0723C12.3086 11.7647 11.351 12.1543 10.3525 12.1543C9.35422 12.1542 8.39635 11.7646 7.69043 11.0723C6.98469 10.3799 6.58798 9.44091 6.58789 8.46191C6.5918 7.81171 6.77297 7.17382 7.1123 6.61523H0.941406ZM10.3525 5.69238C9.79424 5.69246 9.24839 5.85497 8.78418 6.15918C8.31991 6.46346 7.95783 6.89638 7.74414 7.40234C7.5306 7.90823 7.47507 8.46495 7.58398 9.00195C7.69295 9.53907 7.96161 10.0327 8.35645 10.4199C8.75123 10.8071 9.25422 11.0709 9.80176 11.1777C10.3495 11.2846 10.9177 11.2301 11.4336 11.0205C11.9495 10.8109 12.3899 10.4553 12.7002 10C13.0104 9.54469 13.1767 9.00951 13.1768 8.46191C13.1768 7.7276 12.8789 7.02321 12.3496 6.50391C11.8201 5.98457 11.1014 5.69238 10.3525 5.69238ZM0.941406 3.84668V5.69238H7.88867C8.5662 5.09804 9.44355 4.76963 10.3525 4.76953C11.2617 4.76953 12.1398 5.09795 12.8174 5.69238H15.0586V3.84668H0.941406Z" fill="currentColor"/>
</svg>
