<svg width="16" height="16" viewBox="0 0 16 16" fill="none" xmlns="http://www.w3.org/2000/svg">
<path d="M14.4678 1.99954C14.8349 1.99956 15.1867 2.14622 15.4463 2.40579C15.7059 2.66538 15.8525 3.0172 15.8525 3.38431V12.6158C15.8524 12.9828 15.7059 13.3347 15.4463 13.5943C15.1867 13.8538 14.8349 13.9995 14.4678 13.9995H1.54492C1.1777 13.9995 0.825095 13.8539 0.56543 13.5943C0.305946 13.3347 0.16025 12.9828 0.160156 12.6158V3.38431C0.160242 3.01728 0.305949 2.66537 0.56543 2.40579C0.825095 2.14613 1.1777 1.99954 1.54492 1.99954H14.4678ZM1.08301 7.5386V12.6158C1.0831 12.738 1.1314 12.8555 1.21777 12.9419C1.30433 13.0285 1.42251 13.0767 1.54492 13.0767H14.4678C14.5901 13.0767 14.7074 13.0284 14.7939 12.9419C14.8804 12.8555 14.9296 12.738 14.9297 12.6158V7.5386H1.08301ZM1.54492 2.92337C1.42251 2.92337 1.30433 2.97158 1.21777 3.05814C1.1314 3.1446 1.08309 3.2621 1.08301 3.38431V4.76907H14.9297V3.38431C14.9296 3.26202 14.8804 3.14462 14.7939 3.05814C14.7074 2.97168 14.5901 2.92339 14.4678 2.92337H1.54492Z" fill="currentColor"/>
</svg>
