<svg width="16" height="16" viewBox="0 0 16 16" fill="none" xmlns="http://www.w3.org/2000/svg">
<path d="M11.9833 0.000573264C12.1178 -0.00414195 12.2526 0.0204295 12.3778 0.0728389C12.5028 0.125249 12.6167 0.204491 12.7118 0.305261C12.8067 0.405976 12.8811 0.526373 12.9305 0.658776C12.98 0.791465 13.0033 0.934159 12.9989 1.07675V14.9205C13.0075 15.1618 12.9363 15.3988 12.7977 15.5904C12.6589 15.7822 12.4606 15.9168 12.2382 15.9703C12.1529 15.9905 12.0657 16.0006 11.9784 15.9996H4.01745C3.88296 16.0049 3.74824 15.9803 3.62292 15.9283C3.49774 15.8763 3.38423 15.7974 3.28893 15.6969C3.19359 15.5963 3.11884 15.4759 3.0692 15.3433C3.0196 15.2108 2.99556 15.0689 2.99987 14.9264V1.07675C2.99516 0.934403 3.01813 0.792319 3.06725 0.659753C3.11646 0.527121 3.19104 0.406147 3.286 0.305261C3.38102 0.204351 3.49491 0.125269 3.61999 0.0728389C3.74504 0.0204248 3.87914 -0.00415686 4.01354 0.000573264H11.9833ZM11.3866 0.969323C11.3948 1.11646 11.3736 1.26418 11.3241 1.40194C11.2746 1.53963 11.1979 1.66507 11.0995 1.76913C11.0011 1.87308 10.8828 1.9534 10.7528 2.00546C10.6226 2.05755 10.4834 2.08001 10.3446 2.07089H5.54186C5.31885 2.06245 5.10479 1.97241 4.93737 1.816C4.77015 1.65969 4.65888 1.44671 4.62292 1.21346C4.61136 1.12294 4.60497 1.03136 4.60338 0.940026H3.9403C3.91774 0.941023 3.88937 0.978277 3.88561 1.01913V14.9859C3.88942 15.0034 3.89731 15.0198 3.90905 15.0328C3.92072 15.0457 3.93579 15.0544 3.95202 15.0592C3.99095 15.0647 4.03093 15.0676 4.07018 15.066H11.9286C11.9677 15.0686 12.0071 15.0657 12.0458 15.0592C12.0622 15.0553 12.0769 15.0465 12.0887 15.0338C12.1005 15.0211 12.1088 15.0053 12.1122 14.9879C12.1162 14.9516 12.118 14.915 12.1171 14.8785L12.1249 8.15389H12.1151V1.04647C12.1113 0.969903 12.0791 0.935144 12.0087 0.935144H11.3866V0.969323ZM8.00866 8.79159C8.26267 8.79278 8.50562 8.90113 8.68444 9.09237C8.86323 9.28358 8.96385 9.54189 8.96276 9.81112C8.96164 10.0804 8.85899 10.3384 8.67858 10.5279C8.4983 10.7173 8.25462 10.8229 8.00085 10.8219C7.74689 10.8219 7.50271 10.7153 7.32311 10.525C7.14359 10.3347 7.04295 10.0763 7.04284 9.80721C7.04284 9.53794 7.1435 9.27887 7.32311 9.08846C7.50271 8.89818 7.74692 8.79159 8.00085 8.79159H8.00866ZM5.48815 0.956628C5.48815 1.118 5.5068 1.13924 5.6571 1.13925H10.41C10.4279 1.13726 10.4931 1.12745 10.4989 1.07089C10.5042 1.02729 10.5063 0.98298 10.5048 0.93905H5.48815V0.956628Z" fill="currentColor"/>
</svg>
