<svg width="16" height="16" viewBox="0 0 16 16" fill="none" xmlns="http://www.w3.org/2000/svg">
<path d="M8 0.999878C8.23724 0.999878 8.47069 1.05935 8.67871 1.17273C8.88676 1.28614 9.06286 1.4504 9.19043 1.64929C9.31781 1.84799 9.39248 2.07532 9.4082 2.31042C9.42387 2.5458 9.38037 2.7821 9.28027 2.99597C10.8155 3.28145 12.2118 4.0655 13.25 5.22546C14.2883 6.38574 14.9101 7.85676 15.0166 9.40613H16V10.3368H14.8701L13.9297 12.1981H9.59961L10.2168 14.0692H11.2803V14.9999H4.71973V14.0692H5.76758L6.40039 12.1981H2.08496L1.14355 10.3368H0V9.40613H0.984375C1.09078 7.85701 1.71201 6.38665 2.75 5.22644C3.78807 4.06627 5.18451 3.28167 6.71973 2.99597C6.61963 2.7821 6.57613 2.5458 6.5918 2.31042C6.60752 2.07532 6.68219 1.84799 6.80957 1.64929C6.93714 1.4504 7.11324 1.28614 7.32129 1.17273C7.52931 1.05935 7.76276 0.999878 8 0.999878ZM7.40039 12.1952L6.77637 14.0663H9.22363L8.59961 12.1952H7.40039ZM2.19434 10.3358L2.66406 11.2665H13.3359L13.8076 10.3358H2.19434ZM8 3.81335C6.46984 3.81442 4.99588 4.38748 3.87109 5.41882C2.74636 6.45016 2.05321 7.86463 1.92871 9.38074H14.0723C13.9478 7.86443 13.2539 6.45019 12.1289 5.41882C11.0039 4.3875 9.53029 3.81418 8 3.81335ZM8.0918 1.98035C8.00062 1.96232 7.90622 1.97141 7.82031 2.00671C7.73435 2.04211 7.66011 2.10169 7.6084 2.17859C7.55678 2.25539 7.52939 2.34599 7.5293 2.43835C7.5293 2.56232 7.57889 2.6817 7.66699 2.76941C7.75524 2.85714 7.87519 2.9071 8 2.9071C8.09307 2.9071 8.18433 2.87941 8.26172 2.828C8.33899 2.77665 8.39896 2.70339 8.43457 2.61804C8.47018 2.53257 8.48006 2.43827 8.46191 2.34753C8.44378 2.2569 8.39868 2.17367 8.33301 2.10828C8.26721 2.04286 8.18306 1.99841 8.0918 1.98035Z" fill="currentColor"/>
</svg>
