<svg width="16" height="16" viewBox="0 0 16 16" fill="none" xmlns="http://www.w3.org/2000/svg">
<path d="M7.99971 0C10.1206 0.00249093 12.1543 0.845934 13.654 2.3457C15.1536 3.84544 15.9971 5.87907 15.9997 8C15.9997 9.58232 15.5301 11.1297 14.6511 12.4453C13.7721 13.7608 12.5229 14.7861 11.0612 15.3916C9.59945 15.9971 7.99098 16.1554 6.43916 15.8467C4.8874 15.538 3.46223 14.776 2.34346 13.6572C1.22476 12.5385 0.462735 11.1133 0.154004 9.56152C-0.154672 8.00961 0.00359218 6.40035 0.609082 4.93848C1.21456 3.47678 2.23996 2.22766 3.55537 1.34863C4.8709 0.469573 6.41754 0 7.99971 0ZM10.7009 1.47852C9.41113 0.944299 7.99193 0.804785 6.62275 1.07715C5.25353 1.34954 3.99565 2.02157 3.0085 3.00879C2.02138 3.99598 1.34923 5.25379 1.07686 6.62305C0.804494 7.99238 0.943967 9.41226 1.47822 10.7021C2.01247 11.9919 2.91718 13.0945 4.07783 13.8701C5.23858 14.6458 6.60368 15.0595 7.99971 15.0596C9.87118 15.0576 11.6656 14.3127 12.989 12.9893C14.3121 11.6659 15.0563 9.87147 15.0583 8C15.0582 6.60396 14.6444 5.2389 13.8688 4.07812C13.0932 2.91741 11.9906 2.01276 10.7009 1.47852ZM8.31416 8.4707H13.0202V9.41211H7.37275V4.70605H8.31416V8.4707Z" fill="currentColor"/>
</svg>
