<svg width="16" height="16" viewBox="0 0 16 16" fill="none" xmlns="http://www.w3.org/2000/svg">
<path d="M11.5646 0L11.7101 0.167969C13.5274 2.13531 13.3998 6.79805 11.4816 8.62207C10.6701 9.37908 9.62258 9.84698 8.50793 9.9502V14.998H11.0587C11.183 15.0121 11.297 15.0711 11.38 15.1631C11.4629 15.2551 11.5088 15.3733 11.5089 15.4961C11.5089 15.619 11.463 15.738 11.38 15.8301C11.297 15.922 11.1829 15.9811 11.0587 15.9961H4.94641C4.87436 16.0048 4.8009 15.9986 4.73157 15.9775C4.66216 15.9564 4.59752 15.9213 4.54309 15.874C4.48866 15.8268 4.44501 15.7681 4.41516 15.7031C4.3854 15.6382 4.37024 15.5673 4.37024 15.4961C4.37029 15.4251 4.38552 15.3548 4.41516 15.29C4.44498 15.2251 4.48873 15.1664 4.54309 15.1191C4.59752 15.0719 4.66216 15.0368 4.73157 15.0156C4.80093 14.9945 4.87434 14.9884 4.94641 14.9971H7.4845V9.9502C6.37242 9.84548 5.32822 9.37758 4.51868 8.62207C2.60334 6.79898 2.47267 2.13528 4.28235 0.167969L4.44055 0H11.5646ZM4.90539 1C3.60143 2.68021 3.74817 6.49415 5.23059 7.90234C5.98414 8.58823 6.9743 8.96965 8.00207 8.96973C9.02995 8.96973 10.0199 8.58828 10.7736 7.90234C12.2573 6.4943 12.404 2.68018 11.0997 1H4.90539ZM11.4757 3.99902C11.603 5.26531 11.2358 6.53203 10.4484 7.54297C9.77179 8.12506 8.90283 8.44638 8.00305 8.44629C7.10308 8.44612 6.23322 8.12451 5.55676 7.54199H5.55774C4.77066 6.53133 4.40335 5.26491 4.53039 3.99902H11.4757Z" fill="currentColor"/>
</svg>
