<svg width="16" height="16" viewBox="0 0 16 16" fill="none" xmlns="http://www.w3.org/2000/svg">
<path d="M12.4727 0.61499C12.8677 0.61499 13.2482 0.767253 13.5342 1.03979L14.9336 2.43921L14.9326 2.44116C15.2136 2.72234 15.372 3.1032 15.3721 3.50073C15.3721 3.89844 15.2138 4.28 14.9326 4.56128L5.87793 13.6179L0.629883 15.3826L2.35156 10.0935L11.4121 1.03979C11.6981 0.767344 12.0777 0.615044 12.4727 0.61499ZM2.49902 12.8767L3.11523 13.4929L5.07812 12.8328L3.14355 10.8972L2.49902 12.8767ZM3.75977 10.1003L5.87012 12.2117L11.3643 6.71753L9.25293 4.60815L3.75977 10.1003ZM9.95996 3.90112L9.96484 3.9021L12.0762 6.01147L12.8047 5.28296L10.6885 3.17163L9.95996 3.90112ZM12.4697 1.60229C12.3381 1.60229 12.2114 1.65304 12.1162 1.7439L11.3955 2.4646L13.5068 4.57495L14.2266 3.85425L14.2227 3.85034C14.3164 3.75658 14.3691 3.62938 14.3691 3.49683C14.369 3.36437 14.3163 3.23699 14.2227 3.14331L12.8232 1.7439C12.7281 1.65308 12.6013 1.60239 12.4697 1.60229Z" fill="currentColor"/>
</svg>
