<svg width="16" height="16" viewBox="0 0 16 16" fill="none" xmlns="http://www.w3.org/2000/svg">
<path d="M8.00016 0C10.1211 0.00249086 12.1547 0.845952 13.6545 2.3457C15.1542 3.84545 15.9977 5.87903 16.0002 8C16.0002 9.58225 15.5306 11.1287 14.6515 12.4443C13.7725 13.7599 12.5234 14.7851 11.0617 15.3906C9.59995 15.9961 7.99138 16.1553 6.43961 15.8467C4.88776 15.538 3.46175 14.776 2.34293 13.6572C1.22411 12.5384 0.462158 11.1124 0.153476 9.56055C-0.15514 8.00877 0.00406196 6.40021 0.609531 4.93848C1.21504 3.47676 2.2403 2.22764 3.55582 1.34863C4.87141 0.469582 6.41791 0 8.00016 0ZM10.7013 1.47852C9.41155 0.944295 7.99242 0.804811 6.6232 1.07715C5.25393 1.34951 3.99614 2.0216 3.00895 3.00879C2.02175 3.99598 1.34967 5.25377 1.0773 6.62305C0.804968 7.99226 0.944451 9.41139 1.47867 10.7012C2.01291 11.9909 2.91754 13.0935 4.07828 13.8691C5.2391 14.6448 6.60405 15.0586 8.00016 15.0586C9.87166 15.0566 11.6661 14.3126 12.9894 12.9893C14.3128 11.6659 15.0568 9.8715 15.0588 8C15.0588 6.6039 14.6449 5.23894 13.8693 4.07812C13.0937 2.91739 11.9911 2.01276 10.7013 1.47852ZM11.7648 8C11.8896 8 12.0096 8.04944 12.0978 8.1377C12.186 8.22594 12.2355 8.34591 12.2355 8.4707C12.2355 9.59393 11.7895 10.6716 10.9953 11.4658C10.201 12.2601 9.1234 12.7061 8.00016 12.7061C6.87691 12.7061 5.7993 12.2601 5.00504 11.4658C4.2108 10.6716 3.76484 9.59393 3.7648 8.4707C3.7648 8.34591 3.81427 8.22594 3.9025 8.1377C3.99075 8.04944 4.1107 8 4.23551 8C4.3603 8 4.48028 8.04946 4.56852 8.1377C4.65671 8.22594 4.70621 8.34594 4.70621 8.4707C4.70624 9.34432 5.05332 10.1821 5.67105 10.7998C6.28882 11.4175 7.12653 11.7646 8.00016 11.7646C8.87378 11.7646 9.7115 11.4175 10.3293 10.7998C10.947 10.1821 11.2941 9.34432 11.2941 8.4707C11.2941 8.34594 11.3436 8.22594 11.4318 8.1377C11.52 8.04946 11.64 8 11.7648 8ZM5.36051 4.25293C5.54292 4.28925 5.7104 4.37927 5.84195 4.51074C5.97358 4.64237 6.06345 4.81059 6.09977 4.99316C6.136 5.17564 6.11725 5.36523 6.04605 5.53711C5.9748 5.7089 5.85402 5.85565 5.69938 5.95898C5.5447 6.06232 5.36293 6.11713 5.17691 6.11719C4.9273 6.11719 4.6874 6.0183 4.5109 5.8418C4.33459 5.66538 4.23558 5.42617 4.23551 5.17676C4.23551 4.99061 4.29029 4.8081 4.39371 4.65332C4.49713 4.49855 4.64459 4.37787 4.81656 4.30664C4.98849 4.23547 5.17801 4.21663 5.36051 4.25293ZM11.007 4.25293C11.1896 4.28925 11.3578 4.37912 11.4894 4.51074C11.621 4.64237 11.7109 4.81059 11.7472 4.99316C11.7834 5.17562 11.7647 5.36525 11.6935 5.53711C11.6223 5.70889 11.5014 5.85563 11.3468 5.95898C11.1921 6.0624 11.0095 6.11719 10.8234 6.11719C10.5739 6.11711 10.3348 6.01823 10.1584 5.8418C9.98192 5.66536 9.88305 5.42627 9.88297 5.17676C9.88297 4.99061 9.93775 4.8081 10.0412 4.65332C10.1445 4.49873 10.2913 4.37786 10.463 4.30664C10.6349 4.23546 10.8245 4.21672 11.007 4.25293Z" fill="currentColor"/>
</svg>
