<svg width="16" height="16" viewBox="0 0 16 16" fill="none" xmlns="http://www.w3.org/2000/svg">
<path d="M13.501 10.9999C13.8113 10.9997 14.1147 11.0962 14.3682 11.2753C14.6215 11.4543 14.8126 11.7074 14.916 11.9999H16V12.9999H14.915C14.8116 13.2924 14.6205 13.5454 14.3672 13.7245C14.1138 13.9036 13.8103 14 13.5 13.9999C13.19 13.9998 12.8879 13.9035 12.6348 13.7245C12.3815 13.5454 12.1893 13.2923 12.0859 12.9999H0V11.9999H12.0859C12.1894 11.7073 12.3813 11.4544 12.6348 11.2753C12.8881 11.0963 13.1908 10.9998 13.501 10.9999ZM13.501 11.9999C13.3685 11.9999 13.2412 12.0527 13.1475 12.1464C13.0538 12.2401 13.001 12.3673 13.001 12.4999C13.001 12.6323 13.0539 12.7597 13.1475 12.8534C13.2409 12.947 13.3687 12.9995 13.501 12.9999C13.6336 12.9999 13.7607 12.9471 13.8545 12.8534C13.9483 12.7596 14.001 12.6325 14.001 12.4999C14.0009 12.3673 13.9482 12.2401 13.8545 12.1464C13.7607 12.0527 13.6335 11.9999 13.501 11.9999ZM3.5 6.99988C3.81033 6.99972 4.11376 7.09617 4.36719 7.27527C4.62051 7.45433 4.8116 7.70742 4.91504 7.99988H16V8.99988H4.91406C4.81065 9.29237 4.61953 9.5454 4.36621 9.72449C4.11278 9.90359 3.80935 10 3.49902 9.99988C3.189 9.99978 2.88693 9.90348 2.63379 9.72449C2.38056 9.5454 2.18835 9.2923 2.08496 8.99988H0V7.99988H2.08496C2.18841 7.70731 2.38037 7.45436 2.63379 7.27527C2.8871 7.09632 3.18985 6.99977 3.5 6.99988ZM3.5 7.99988C3.36748 7.99994 3.2402 8.05265 3.14648 8.14636C3.05278 8.2401 3.00003 8.36734 3 8.49988C3 8.6324 3.05283 8.75964 3.14648 8.85339C3.2402 8.9471 3.36748 8.99981 3.5 8.99988C3.63258 8.99988 3.75975 8.94712 3.85352 8.85339C3.94728 8.75963 4 8.63249 4 8.49988C3.99997 8.36731 3.94725 8.2401 3.85352 8.14636C3.75977 8.05271 3.63252 7.99988 3.5 7.99988ZM7.50098 2.99988C7.8113 2.99972 8.11474 3.09617 8.36816 3.27527C8.62149 3.45433 8.81257 3.70742 8.91602 3.99988H16V4.99988H8.91504C8.81163 5.29237 8.62051 5.5454 8.36719 5.72449C8.11376 5.90359 7.81033 6.00004 7.5 5.99988C7.1898 5.99999 6.88713 5.90349 6.63379 5.72449C6.38036 5.54539 6.18938 5.29246 6.08594 4.99988H0V3.99988H6.08594C6.18938 3.70731 6.38135 3.45436 6.63477 3.27527C6.88808 3.09632 7.19083 2.99977 7.50098 2.99988ZM7.50098 3.99988C7.36846 3.99994 7.24117 4.05265 7.14746 4.14636C7.05376 4.2401 7.00101 4.36734 7.00098 4.49988C7.00098 4.63231 7.05391 4.75965 7.14746 4.85339C7.24095 4.94704 7.36866 4.99955 7.50098 4.99988C7.63356 4.99988 7.76073 4.94712 7.85449 4.85339C7.94826 4.75963 8.00098 4.63249 8.00098 4.49988C8.00094 4.36731 7.94823 4.2401 7.85449 4.14636C7.76074 4.05271 7.6335 3.99988 7.50098 3.99988Z" fill="currentColor"/>
</svg>
