<svg width="16" height="16" viewBox="0 0 16 16" fill="none" xmlns="http://www.w3.org/2000/svg">
<path d="M16 5.64551V9.41016H15.0586V15.999H0.941406V9.41016H0V5.64551H16ZM1.88281 9.41016V15.0576H14.1172V9.41016H10.8662L11.6328 13.6201L9.04297 12.543L6.99512 14.4395L6.1084 9.41016H1.88281ZM6.56543 6.58691L7.62305 12.5713L8.84668 11.4414L10.3984 12.0859L9.39453 6.58691H6.56543ZM0.941406 6.58691V8.46875H5.94141L5.60938 6.58691H0.941406ZM10.3525 6.58691L10.6934 8.46875H15.0586V6.58691H10.3525ZM11.2373 0.00878906C11.8344 0.00878906 12.4149 0.208704 12.8848 0.577148C13.1079 0.760044 13.2885 0.989796 13.4131 1.25C13.5376 1.51011 13.6029 1.79464 13.6055 2.08301C13.6032 2.37154 13.5377 2.65674 13.4131 2.91699C13.2885 3.17706 13.1079 3.40623 12.8848 3.58887C11.6004 4.48165 10.1266 5.06534 8.5791 5.29297L8.6084 5.46289L8.00879 5.38672H7.97949L7.3457 5.46777L7.37695 5.2832C5.8309 5.05778 4.35815 4.47775 3.07324 3.58887C2.84954 3.40649 2.66858 3.17732 2.54395 2.91699C2.41931 2.65666 2.35335 2.37163 2.35156 2.08301C2.35379 1.79457 2.42037 1.51017 2.54492 1.25C2.66952 0.989796 2.84988 0.759751 3.07324 0.577148C3.54297 0.208716 4.12274 0.00885018 4.71973 0.00878906C5.31692 0.00878906 5.89734 0.208526 6.36719 0.577148C7.09289 1.25921 7.64509 2.10515 7.97754 3.04395C8.31156 2.10528 8.86475 1.25943 9.59082 0.577148C10.0606 0.208865 10.6404 0.0088655 11.2373 0.00878906ZM11.2363 0.923828C10.8602 0.923914 10.4951 1.05147 10.2012 1.28613H10.1992C9.37851 2.13206 8.80443 3.1866 8.53906 4.33496C9.87712 4.13082 11.1532 3.62934 12.2725 2.86816C12.3915 2.77315 12.4881 2.65306 12.5557 2.5166C12.6233 2.38012 12.6596 2.23039 12.6631 2.07812C12.6599 1.92561 12.6233 1.77542 12.5557 1.63867C12.488 1.50198 12.3917 1.38123 12.2725 1.28613C11.9784 1.05139 11.6126 0.923828 11.2363 0.923828ZM4.7207 0.930664C4.34396 0.925154 3.97743 1.05351 3.68652 1.29297H3.68457C3.56572 1.38754 3.46884 1.50748 3.40137 1.64355C3.33407 1.77945 3.2973 1.92847 3.29395 2.08008C3.29766 2.23152 3.33486 2.38097 3.40234 2.5166C3.46979 2.65206 3.56616 2.77102 3.68457 2.86523C4.80219 3.62548 6.07666 4.12559 7.41309 4.32812C7.14771 3.18437 6.57418 2.13496 5.75586 1.29297C5.46478 1.0531 5.09784 0.924627 4.7207 0.930664Z" fill="currentColor"/>
</svg>
