<svg width="16" height="16" viewBox="0 0 16 16" fill="none" xmlns="http://www.w3.org/2000/svg">
<path d="M7.99968 0C10.1205 0.00180558 12.1542 0.845663 13.654 2.34521C15.1537 3.84489 15.9973 5.87866 15.9997 7.99951C15.9997 9.58176 15.5311 11.1292 14.652 12.4448C13.773 13.7604 12.523 14.7856 11.0612 15.3911C9.59945 15.9965 7.9909 16.1549 6.43913 15.8462C4.88738 15.5375 3.4622 14.7755 2.34343 13.6567C1.22469 12.538 0.462702 11.1127 0.153974 9.56104C-0.154685 8.0093 0.00366247 6.40069 0.609052 4.93896C1.21455 3.47716 2.23975 2.2272 3.55534 1.34814C4.87085 0.469148 6.41753 0 7.99968 0ZM5.57976 12.2339C6.04901 13.2579 6.6772 14.2019 7.44108 15.0298C7.62536 15.0467 7.80976 15.061 7.99772 15.061C8.17091 15.061 8.34185 15.0457 8.51237 15.0337C9.27733 14.2049 9.9059 13.2597 10.3747 12.2339H5.57976ZM4.81348 12.2339H1.10352C1.56256 13.0476 2.19104 13.7546 2.94873 14.3071C3.70634 14.8597 4.57367 15.2448 5.49219 15.437C5.24133 15.0623 5.01379 14.6744 4.81348 12.2339ZM14.8955 12.2339H11.1865C10.9849 14.6725 10.7577 15.0604 10.5078 15.4351C11.4258 15.2421 12.2926 14.8568 13.0498 14.3043C13.8071 13.7519 14.4354 13.0453 14.8955 12.2339ZM0.692383 11.291H4.60547C4.50879 10.8779 4.44824 10.4565 4.42578 10.0322C4.40137 9.56592 4.40918 9.09863 4.44922 8.63379H0.341797C0.265625 9.18066 0.24707 9.7373 0.28418 10.2905C0.335937 10.6299 0.479492 10.9756 0.692383 11.291ZM15.3076 11.291C15.5186 10.9756 15.6621 10.6299 15.7158 10.2905C15.752 9.73779 15.7334 9.18213 15.6572 8.63379H11.5498C11.5889 9.09863 11.5977 9.56592 11.5742 10.0322C11.5518 10.4565 11.4912 10.8779 11.3936 11.291H15.3076ZM5.36914 11.291H10.6309C10.7422 10.8823 10.8115 10.4629 10.8379 10.0396C10.8643 9.57227 10.8545 9.10352 10.8096 8.63379H5.19043C5.14551 9.10352 5.13574 9.57227 5.16211 10.0396C5.18848 10.4629 5.25781 10.8823 5.36914 11.291ZM4.43848 7.69043H0.341797C0.41504 7.14307 0.53418 6.60498 0.692383 6.08252C0.479492 6.39795 0.336914 6.74365 0.28418 7.08301C0.247559 7.28809 0.23584 7.48975 0.232422 7.69043H4.43848ZM15.7676 7.69043C15.7637 7.48975 15.752 7.28809 15.7158 7.08301C15.6631 6.74365 15.5205 6.39795 15.3076 6.08252C15.4658 6.60498 15.585 7.14307 15.6582 7.69043H15.7676ZM11.5615 7.69043H15.7676C15.7637 7.48975 15.752 7.28809 15.7158 7.08301H11.5615V7.69043ZM5.19922 7.69043H10.8008V7.08301H5.19922V7.69043ZM0.232422 7.69043H4.43848V7.08301H0.284180C0.247559 7.28809 0.23584 7.48975 0.232422 7.69043ZM10.3747 3.76611C9.9059 2.74219 9.27783 1.79736 8.51367 0.970215C8.34277 0.95459 8.1709 0.939453 7.99805 0.939453C7.82471 0.939453 7.65234 0.95459 7.48047 0.970215C6.71582 1.79736 6.08594 2.74219 5.61523 3.76611H10.3747ZM11.1875 3.76611H14.8975C14.438 2.95117 13.8096 2.24512 13.0527 1.69238C12.2949 1.13965 11.4282 0.754395 10.5098 0.561523C10.7588 0.936035 10.9863 1.32373 11.1875 3.76611ZM4.81348 3.76611C5.01465 1.32471 5.24023 0.936035 5.49023 0.561523C4.57227 0.754395 3.70508 1.13965 2.94727 1.69238C2.18994 2.24512 1.56152 2.95117 1.10254 3.76611H4.81348ZM5.36914 4.70947C5.25781 5.11816 5.18848 5.53857 5.16211 5.96191C5.13574 6.42871 5.14551 6.89648 5.19043 7.36182H10.8096C10.8545 6.89648 10.8643 6.42871 10.8379 5.96191C10.8115 5.53857 10.7422 5.11816 10.6309 4.70947H5.36914ZM4.60547 4.70947H0.692383C0.479492 5.02295 0.335938 5.36865 0.28418 5.70801C0.238281 5.96436 0.224609 6.22412 0.220703 6.42822H4.44922C4.50879 5.5625 4.53027 5.13477 4.60547 4.70947ZM15.3076 4.70947H11.3936C11.4697 5.13477 11.4912 5.5625 11.5498 6.42822H15.7793C15.7754 6.22412 15.7617 5.96436 15.7158 5.70801C15.6621 5.36865 15.5205 5.02295 15.3076 4.70947Z" fill="currentColor"/>
</svg>
