<svg width="16" height="16" viewBox="0 0 16 16" fill="none" xmlns="http://www.w3.org/2000/svg">
<path d="M10.5635 8.51855C11.4033 8.53076 12.2188 8.82324 12.877 9.35156C13.5352 9.87988 14.0000 10.6133 14.166 11.4316L14.2051 11.6543H13.2471L13.2178 11.5117C13.0781 10.9033 12.7344 10.3594 12.2451 9.97168C11.7559 9.58398 11.1484 9.37695 10.5234 9.38086H10.4805C9.99414 9.38574 9.51855 9.51855 9.09863 9.76855L8.57227 9.16699C8.81055 9.00488 9.07031 8.87695 9.34473 8.78613L9.71484 8.65625C9.99414 8.5625 10.2734 8.50586 10.5635 8.51855ZM5.43652 8.51855C5.72656 8.50586 6.00586 8.5625 6.28516 8.65625L6.65527 8.78613C6.92969 8.87695 7.18945 9.00488 7.42773 9.16699L6.90137 9.76855C6.48145 9.51855 5.99609 9.38574 5.51953 9.38086H5.47656C4.85156 9.37695 4.24414 9.58398 3.75488 9.97168C3.26562 10.3594 2.92188 10.9033 2.78223 11.5117L2.75293 11.6543H1.79492L1.83398 11.4316C2.00000 10.6133 2.46484 9.87988 3.12305 9.35156C3.78125 8.82324 4.59668 8.53076 5.43652 8.51855ZM8.00000 8.15332C8.97754 8.16699 9.91797 8.56250 10.6182 9.25977C11.3184 9.95703 11.7139 10.9033 11.7139 11.8809V12.3613H4.28613V11.8809C4.28613 10.9033 4.68164 9.95703 5.38184 9.25977C6.08203 8.56250 7.02246 8.16699 8.00000 8.15332ZM8.00000 9.03516C7.26367 9.04785 6.56348 9.35156 6.05078 9.88086C5.53809 10.4102 5.24805 11.1211 5.24805 11.8594H10.752C10.752 11.1211 10.4619 10.4102 9.94922 9.88086C9.43652 9.35156 8.73633 9.04785 8.00000 9.03516ZM10.5537 4.07812C11.5996 4.08789 12.5049 4.76758 12.8105 5.75977C13.1162 6.75195 12.7617 7.82812 11.9229 8.44531C11.084 9.0625 9.94629 9.07422 9.09375 8.47461C8.24121 7.875 7.86621 6.80664 8.15430 5.81055C8.44238 4.81445 9.33887 4.11914 10.3848 4.09180L10.5537 4.07812ZM5.44629 4.07812L5.61523 4.09180C6.66113 4.11914 7.55762 4.81445 7.8457 5.81055C8.13379 6.80664 7.75879 7.875 6.90625 8.47461C6.05371 9.07422 4.91602 9.0625 4.07715 8.44531C3.23828 7.82812 2.88379 6.75195 3.18945 5.75977C3.49512 4.76758 4.40039 4.08789 5.44629 4.07812ZM10.5537 4.96484C9.85840 4.96973 9.22852 5.39258 8.96484 6.04199C8.70117 6.69141 8.85840 7.43262 9.35840 7.92285C9.85840 8.41309 10.6074 8.55859 11.252 8.28613C11.8965 8.01367 12.3096 7.37500 12.3047 6.67969C12.3096 6.23730 12.1387 5.80957 11.8281 5.49023C11.5176 5.17090 11.0947 4.98438 10.6523 4.97363L10.5537 4.96484ZM5.44629 4.96484L5.34766 4.97363C4.90527 4.98438 4.48242 5.17090 4.17188 5.49023C3.86133 5.80957 3.69043 6.23730 3.69531 6.67969C3.69043 7.37500 4.10352 8.01367 4.74805 8.28613C5.39258 8.55859 6.14160 8.41309 6.64160 7.92285C7.14160 7.43262 7.29883 6.69141 7.03516 6.04199C6.77148 5.39258 6.14160 4.96973 5.44629 4.96484Z" fill="currentColor"/>
</svg>
