<svg width="16" height="16" viewBox="0 0 16 16" fill="none" xmlns="http://www.w3.org/2000/svg">
<path d="M8 0C9.59121 0.0689334 11.1151 0.661544 12.335 1.68555C13.5549 2.7096 14.4025 4.10781 14.7461 5.66309C15.0902 5.70061 15.4083 5.86365 15.6396 6.12109C15.8709 6.37858 15.9994 6.71251 16 7.05859V10.8232C16 11.1967 15.8514 11.5547 15.5879 11.8193C15.3244 12.0839 14.9672 12.2338 14.5938 12.2354H13.1758V11.2939H12.2354V6.58789H13.1758V5.64746H13.7461C13.4184 4.3512 12.6838 3.19382 11.6494 2.34668C10.6149 1.49957 9.33545 1.00709 8 0.941406C6.6649 1.00851 5.38583 1.5017 4.35156 2.34863C3.31747 3.19554 2.58199 4.35195 2.25293 5.64746H2.82324V6.58789H3.76465V11.2939H2.82324V12.2354H1.82227C1.93071 12.7665 2.21886 13.244 2.63867 13.5869C3.05867 13.9299 3.58469 14.1171 4.12695 14.1172H6.6748C6.77182 13.8431 6.95141 13.6059 7.18848 13.4375C7.42567 13.2691 7.70909 13.178 8 13.1768H10.8232C11.1976 13.1768 11.5566 13.3252 11.8213 13.5898C12.086 13.8545 12.2353 14.2136 12.2354 14.5879C12.2354 14.9623 12.086 15.3222 11.8213 15.5869C11.5566 15.8515 11.1975 16 10.8232 16H8C7.70915 15.9988 7.42564 15.9076 7.18848 15.7393C6.95127 15.5708 6.77179 15.3329 6.6748 15.0586H4.12695C3.31847 15.0561 2.53942 14.7557 1.93848 14.2148C1.33753 13.674 0.956424 12.9307 0.869141 12.127C0.611888 12.0199 0.392011 11.8392 0.237305 11.6074C0.0825337 11.3754 0 11.1021 0 10.8232V7.05859C0.000564113 6.71254 0.128156 6.37857 0.359375 6.12109C0.590586 5.86367 0.90898 5.70072 1.25293 5.66309C1.59824 4.10874 2.44651 2.71124 3.66602 1.6875C4.88559 0.663754 6.40927 0.0707681 8 0ZM8 14.1172C7.87519 14.1172 7.75524 14.1676 7.66699 14.2559C7.57894 14.344 7.52939 14.4633 7.5293 14.5879C7.5293 14.7127 7.57877 14.8327 7.66699 14.9209C7.75524 15.0092 7.87519 15.0586 8 15.0586H10.8232C10.948 15.0586 11.068 15.0092 11.1562 14.9209C11.2444 14.8327 11.2939 14.7126 11.2939 14.5879C11.2939 14.4633 11.2442 14.344 11.1562 14.2559C11.068 14.1676 10.948 14.1172 10.8232 14.1172H8ZM1.40625 6.58789C1.28242 6.58938 1.16418 6.64042 1.07715 6.72852C0.990194 6.81655 0.941458 6.93486 0.941406 7.05859V10.8232C0.941397 10.9471 0.990114 11.0662 1.07715 11.1543C1.16417 11.2423 1.28251 11.2925 1.40625 11.2939H1.88184V6.58789H1.40625ZM14.1172 6.58789V11.2939H14.5938C14.7175 11.2924 14.8358 11.2424 14.9229 11.1543C15.0099 11.0662 15.0586 10.9471 15.0586 10.8232V7.05859C15.0585 6.93498 15.0097 6.81652 14.9229 6.72852C14.8358 6.64045 14.7175 6.5894 14.5938 6.58789H14.1172Z" fill="currentColor"/>
</svg>
