<svg width="16" height="16" viewBox="0 0 16 16" fill="none" xmlns="http://www.w3.org/2000/svg">
<path d="M16 0V16H0V0H16ZM15.0586 0.941406H0.941406V15.0586H15.0586V0.941406ZM4.70605 3.29004C5.11816 3.29004 5.51367 3.45313 5.80664 3.74609C6.09961 4.03906 6.26367 4.43457 6.26367 4.84668C6.26367 5.25879 6.09961 5.6543 5.80664 5.94727C5.51367 6.24023 5.11816 6.40332 4.70605 6.40332C4.29395 6.40332 3.89844 6.24023 3.60547 5.94727C3.3125 5.6543 3.14941 5.25879 3.14941 4.84668C3.14941 4.43457 3.3125 4.03906 3.60547 3.74609C3.89844 3.45313 4.29395 3.29004 4.70605 3.29004ZM4.70605 4.23145C4.54883 4.23145 4.39746 4.29395 4.28613 4.40625C4.1748 4.51758 4.1123 4.66895 4.1123 4.82617C4.1123 4.9834 4.1748 5.13477 4.28613 5.24707C4.39746 5.35938 4.54883 5.42188 4.70605 5.42188C4.86328 5.42188 5.01465 5.35938 5.12598 5.24707C5.23828 5.13477 5.30078 4.9834 5.30078 4.82617C5.30078 4.66895 5.23828 4.51758 5.12598 4.40625C5.01465 4.29395 4.86328 4.23145 4.70605 4.23145ZM15.0586 10.1328V15.0586H0.941406V12.2227L5.05371 8.11035L8.38184 11.4385L11.8477 7.97266L15.0586 10.1328ZM11.8916 9.16016L8.38672 12.665L5.05859 9.33691L1.88281 12.5127V14.1172H14.1172V10.7305L11.8916 9.16016Z" fill="currentColor"/>
</svg>
