<svg width="16" height="16" viewBox="0 0 16 16" fill="none" xmlns="http://www.w3.org/2000/svg">
<path d="M8 0C10.1217 0 12.1566 0.842773 13.6572 2.34277C15.1577 3.84277 16 5.87793 16 8C16 10.1221 15.1572 12.157 13.6572 13.6572C12.1572 15.1575 10.1217 16 8 16C5.87832 16 3.84277 15.1575 2.34277 13.6572C0.842773 12.157 0 10.1221 0 8C0 5.87793 0.842773 3.84277 2.34277 2.34277C3.84277 0.842773 5.87832 0 8 0ZM8 1.06641C6.16162 1.06885 4.39893 1.80078 3.09961 3.10059C1.80029 4.40039 1.06836 6.16309 1.06641 8.00195C1.06836 9.84082 1.80029 11.6035 3.09961 12.9033C4.39893 14.2031 6.16162 14.9351 8 14.9375C9.83838 14.9375 11.6011 14.2051 12.9004 12.9053C14.1997 11.6055 14.9316 9.84277 14.9336 8.00391C14.9316 6.16504 14.1997 4.40234 12.9004 3.10254C11.6011 1.80273 9.83838 1.07031 8 1.06641ZM8 6.94629C8.26367 6.94629 8.51758 7.05078 8.70508 7.23828C8.89258 7.42578 8.99609 7.67969 8.99609 7.94336V11.7197C8.99609 11.9834 8.89258 12.2373 8.70508 12.4248C8.51758 12.6123 8.26367 12.7168 8 12.7168C7.73633 12.7168 7.48242 12.6123 7.29492 12.4248C7.10742 12.2373 7.00391 11.9834 7.00391 11.7197V7.94336C7.00391 7.67969 7.10742 7.42578 7.29492 7.23828C7.48242 7.05078 7.73633 6.94629 8 6.94629ZM8 3.75293C8.27734 3.75293 8.54297 3.86328 8.73828 4.05762C8.93359 4.25195 9.04395 4.51758 9.04395 4.79492C9.04395 5.07227 8.93359 5.33789 8.73828 5.53223C8.54297 5.72656 8.27734 5.83691 8 5.83691C7.72266 5.83691 7.45703 5.72656 7.26172 5.53223C7.06641 5.33789 6.95605 5.07227 6.95605 4.79492C6.95605 4.51758 7.06641 4.25195 7.26172 4.05762C7.45703 3.86328 7.72266 3.75293 8 3.75293Z" fill="currentColor"/>
</svg>
