<svg width="16" height="16" viewBox="0 0 16 16" fill="none" xmlns="http://www.w3.org/2000/svg">
<path d="M8.5 5.5C8.5 5.77734 8.39355 6.04297 8.20215 6.23926C8.01074 6.43555 7.74902 6.54883 7.47656 6.55762C7.20020 6.56152 6.93359 6.45996 6.73535 6.27344C6.53711 6.08691 6.41992 5.83008 6.40723 5.55957L6.40625 5.5C6.40625 5.22266 6.51270 4.95703 6.70410 4.76074C6.89551 4.56445 7.15723 4.45117 7.42969 4.44238C7.70605 4.43848 7.97266 4.54004 8.17090 4.72656C8.36914 4.91309 8.48633 5.16992 8.49902 5.44043L8.5 5.5ZM7.40039 7.29883H8.50977L8.08496 11.3613H6.97559L7.40039 7.29883ZM8 0C10.1221 0 12.157 0.842773 13.6572 2.34277C15.1577 3.84277 16 5.87793 16 8C16 10.1221 15.1572 12.157 13.6572 13.6572C12.1572 15.1575 10.1221 16 8 16C5.87793 16 3.84277 15.1575 2.34277 13.6572C0.842773 12.157 0 10.1221 0 8C0 5.87793 0.842773 3.84277 2.34277 2.34277C3.84277 0.842773 5.87793 0 8 0ZM8 1.06641C6.16162 1.06885 4.39893 1.80078 3.09961 3.10059C1.80029 4.40039 1.06836 6.16309 1.06641 8.00195C1.06836 9.84082 1.80029 11.6035 3.09961 12.9033C4.39893 14.2031 6.16162 14.9351 8 14.9375C9.83838 14.9375 11.6011 14.2051 12.9004 12.9053C14.1997 11.6055 14.9316 9.84277 14.9336 8.00391C14.9316 6.16504 14.1997 4.40234 12.9004 3.10254C11.6011 1.80273 9.83838 1.07031 8 1.06641Z" fill="currentColor"/>
</svg>
