<svg width="16" height="16" viewBox="0 0 16 16" fill="none" xmlns="http://www.w3.org/2000/svg">
<path d="M9.86619 0.94043H8.46678V1.90527C10.2787 2.0274 11.9722 2.85458 13.1904 4.21191C14.4087 5.56928 15.0566 7.35037 14.9961 9.17969C14.9355 11.0091 14.1716 12.744 12.8662 14.0166C11.5609 15.2889 9.81586 15.9999 7.99998 16C6.1839 16 4.4382 15.2892 3.13279 14.0166C1.82739 12.744 1.06446 11.0091 1.00389 9.17969C0.943408 7.35045 1.59043 5.56926 2.80858 4.21191C4.02691 2.85447 5.72114 2.0273 7.53319 1.90527V0.94043H6.13279V0H9.86619V0.94043ZM10.3213 3.28809C9.21281 2.82532 7.99313 2.70359 6.81639 2.93945C5.63957 3.17539 4.55838 3.75813 3.70994 4.61328C2.86153 5.46842 2.28387 6.55804 2.04979 7.74414C1.81574 8.93023 1.93536 10.1601 2.39451 11.2773C2.85369 12.3945 3.63134 13.3497 4.62889 14.0215C5.62655 14.6934 6.80011 15.0518 7.99998 15.0518C9.60812 15.0497 11.1499 14.4048 12.2871 13.2588C13.4244 12.1125 14.0644 10.5576 14.0664 8.93652C14.0663 7.72735 13.7104 6.54545 13.0439 5.54004C12.3773 4.53452 11.4298 3.75089 10.3213 3.28809ZM7.84666 6.20898L5.5908 12.2715H4.69627L6.89354 6.47949H4.05076V5.6543H7.85838L7.84666 6.20898ZM9.11424 7.26074L10.0097 8.92676L10.9072 7.26074H11.8984L10.4863 9.72363L11.9502 12.2715H10.9638L10.0156 10.5254L9.06248 12.2715H8.07615L9.53709 9.72363L8.12889 7.26074H9.11424Z" fill="currentColor"/>
</svg>
