<svg width="16" height="16" viewBox="0 0 16 16" fill="none" xmlns="http://www.w3.org/2000/svg">
<path d="M8 0C10.1217 0 12.1566 0.842773 13.6572 2.34277C15.1577 3.84277 16 5.87793 16 8C16 10.1221 15.1572 12.157 13.6572 13.6572C12.1572 15.1575 10.1217 16 8 16C5.87832 16 3.84277 15.1575 2.34277 13.6572C0.842773 12.157 0 10.1221 0 8C0 5.87793 0.842773 3.84277 2.34277 2.34277C3.84277 0.842773 5.87832 0 8 0ZM8 1.06641C6.16162 1.06885 4.39893 1.80078 3.09961 3.10059C1.80029 4.40039 1.06836 6.16309 1.06641 8.00195C1.06836 9.84082 1.80029 11.6035 3.09961 12.9033C4.39893 14.2031 6.16162 14.9351 8 14.9375C9.83838 14.9375 11.6011 14.2051 12.9004 12.9053C14.1997 11.6055 14.9316 9.84277 14.9336 8.00391C14.9316 6.16504 14.1997 4.40234 12.9004 3.10254C11.6011 1.80273 9.83838 1.07031 8 1.06641ZM11.5098 4.48047L11.5186 4.49023L11.5195 4.48926L12.2256 5.19629L8.71875 8.70117L12.2256 12.208L11.5186 12.915L8.01172 9.40723L4.50293 12.915L3.79688 12.208L7.30371 8.70117L3.79688 5.19434L4.50293 4.48730L8.01172 7.99414L11.5098 4.48047Z" fill="currentColor"/>
</svg>
