<svg width="16" height="16" viewBox="0 0 16 16" fill="none" xmlns="http://www.w3.org/2000/svg">
<path d="M9.65625 0.960007C10.0943 0.960005 10.515 1.13413 10.8252 1.44341C11.135 1.75254 11.3102 2.17178 11.3115 2.60942V2.9268H13.3633L15.9307 7.60161H16V13.1895H14.1328V13.211C14.1218 13.7003 13.9193 14.1666 13.5693 14.5088C13.2194 14.8508 12.7491 15.042 12.2598 15.042C11.7707 15.0419 11.301 14.8507 10.9512 14.5088C10.6012 14.1666 10.3987 13.7003 10.3877 13.211V13.1895H6.10352C6.10398 13.1966 6.10397 13.2039 6.10352 13.211C6.09254 13.7003 5.89 14.1666 5.54004 14.5088C5.19022 14.8507 4.72057 15.0419 4.23145 15.042C3.74214 15.042 3.2718 14.8508 2.92188 14.5088C2.57191 14.1666 2.36937 13.7003 2.3584 13.211V13.1895H0V7.58696H0.0146484V2.60844C0.016017 2.17085 0.191103 1.75142 0.500977 1.44243C0.810953 1.13337 1.23122 0.960005 1.66895 0.960007H9.65625ZM4.41016 12.294C4.22831 12.2582 4.03923 12.2774 3.86816 12.3487C3.69715 12.42 3.55078 12.541 3.44824 12.6954C3.34591 12.8496 3.29146 13.0308 3.29199 13.2159C3.29394 13.4565 3.3923 13.6958 3.56738 13.8721C3.7424 14.0483 3.98021 14.1477 4.22852 14.1495C4.41385 14.1495 4.59496 14.0943 4.74902 13.9913C4.90293 13.8883 5.02293 13.7424 5.09375 13.5713C5.16454 13.4001 5.18382 13.2111 5.14746 13.0293C5.1111 12.8476 5.0209 12.6807 4.88965 12.5499C4.75852 12.4192 4.59176 12.3298 4.41016 12.294ZM12.4355 12.294C12.2537 12.2582 12.0646 12.2774 11.8936 12.3487C11.7225 12.42 11.5762 12.541 11.4736 12.6954C11.3713 12.8496 11.3168 13.0308 11.3174 13.2159C11.3299 13.3926 11.3526 13.4828 11.3877 13.5684C11.4345 13.6825 11.5029 13.7867 11.5898 13.8741C11.6769 13.9615 11.7806 14.0308 11.8945 14.0782C12.0084 14.1255 12.1306 14.1494 12.2539 14.1495C12.4392 14.1495 12.6204 14.0943 12.7744 13.9913C12.9283 13.8883 13.0483 13.7424 13.1191 13.5713C13.1899 13.4001 13.2092 13.2111 13.1729 13.0293C13.1365 12.8476 13.0463 12.6807 12.915 12.5499C12.7839 12.4192 12.6172 12.3298 12.4355 12.294ZM11.3096 8.5518H0.939453L0.935547 12.2608H2.62988C2.79444 11.9831 3.02814 11.7527 3.30859 11.5928C3.58909 11.433 3.90665 11.3487 4.22949 11.3487C4.55237 11.3487 4.86986 11.433 5.15039 11.5928C5.43093 11.7527 5.66548 11.983 5.83008 12.2608H10.6543C10.8188 11.9831 11.0526 11.7527 11.333 11.5928C11.6135 11.433 11.9311 11.3487 12.2539 11.3487C12.5768 11.3487 12.8943 11.433 13.1748 11.5928C13.4553 11.7527 13.6899 11.983 13.8545 12.2608H15.0664V8.54008L11.3096 8.53618V8.5518ZM11.3115 3.86919L11.3096 7.60356H14.7637L12.6816 3.86919H11.3115ZM1.66699 1.8936C1.47716 1.8936 1.29459 1.96856 1.16016 2.10258C1.02582 2.23656 0.94984 2.41873 0.949219 2.60844V7.58891L3.36914 7.59477H10.3613V2.9268H10.373V2.60942C10.3724 2.41961 10.2964 2.23769 10.1621 2.10356C10.0275 1.9693 9.84443 1.8936 9.6543 1.8936H1.66699Z" fill="currentColor"/>
</svg>
