<svg width="16" height="16" viewBox="0 0 16 16" fill="none" xmlns="http://www.w3.org/2000/svg">
<path d="M14.1526 0V15.9863L12.2854 13.6553L10.8655 15.4307L9.44556 13.6553L8.02563 15.4307L6.60474 13.6553L5.18481 15.4307L3.76489 13.6504L1.84497 16V0H14.1526ZM2.79126 0.946289V13.3486L3.77271 12.1465L5.18774 13.917L6.60767 12.1416L8.02759 13.917L9.44751 12.1416L10.8674 13.917L12.2874 12.1416L13.2053 13.2881V0.946289H2.79126ZM11.3118 10.4141H4.68481V9.4668H11.3118V10.4141ZM8.47192 7.57422H4.68481V6.62695H8.47192V7.57422ZM11.2942 5.68066H4.66724V4.7334H11.2942V5.68066ZM10.3655 3.78711H4.68481V2.83984H10.3655V3.78711Z" fill="currentColor"/>
</svg>
