<svg width="16" height="16" viewBox="0 0 16 16" fill="none" xmlns="http://www.w3.org/2000/svg">
<path d="M8.00003 0C5.53853 0.00292969 3.18067 1.08154 1.49316 2.9834C-0.194336 4.88525 -0.945801 7.42529 -0.61084 9.9375L0.330566 9.81592C0.0288086 7.60791 0.693359 5.37646 2.14941 3.68066C3.60547 1.98486 5.74658 0.980469 8.00003 0.980469C10.2535 0.980469 12.3946 1.98486 13.8506 3.68066C15.3067 5.37646 15.9712 7.60791 15.6694 9.81592L16.6113 9.9375C16.9458 7.42529 16.1948 4.88525 14.5073 2.9834C12.8198 1.08154 10.4614 0.00292969 8.00003 0ZM8.00003 2.5C6.31738 2.5 4.70361 3.16895 3.51611 4.35596C2.3291 5.54297 1.65967 7.15674 1.65967 8.83984V9.66943L2.63916 9.56299C2.63916 9.56299 2.64697 11.3096 3.86621 12.8438C4.66699 13.8447 5.81592 14.623 7.31348 14.8672L7.31348 15.8594C7.10596 15.834 6.90381 15.7949 6.70264 15.7393L6.47412 15.6709L6.47412 16L7.30029 15.9844C7.40381 15.9932 7.5083 15.999 7.61426 16H8.38672C8.49268 15.999 8.59717 15.9932 8.70068 15.9844L9.52686 16V15.6709L9.29834 15.7393C9.09717 15.7949 8.89502 15.834 8.6875 15.8594V14.8672C10.1851 14.623 11.334 13.8447 12.1348 12.8438C13.354 11.3096 13.3618 9.56299 13.3618 9.56299L14.3413 9.66943V8.83984C14.3413 7.15674 13.6719 5.54297 12.4849 4.35596C11.2979 3.16895 9.68359 2.5 8.00003 2.5ZM8.00003 4.5C9.38574 4.5 10.5386 5.65283 10.5386 7.03857C10.5386 8.00879 9.98682 8.83008 9.18115 9.25439L9.18115 13.9346C8.81006 14.0088 8.41211 14.0498 8.00003 14.0498C7.58789 14.0498 7.18994 14.0088 6.81885 13.9346V9.25439C6.01318 8.83008 5.46143 8.00879 5.46143 7.03857C5.46143 5.65283 6.61426 4.5 8.00003 4.5ZM8.00003 5.5C7.16602 5.5 6.46143 6.2041 6.46143 7.03857C6.46143 7.87305 7.16602 8.57764 8.00003 8.57764C8.83398 8.57764 9.53857 7.87305 9.53857 7.03857C9.53857 6.2041 8.83398 5.5 8.00003 5.5Z" fill="currentColor"/>
</svg>
