<svg width="16" height="16" viewBox="0 0 16 16" fill="none" xmlns="http://www.w3.org/2000/svg">
<path d="M10.4941 0.00515345C11.3743 0.00388627 12.2229 0.336158 12.8682 0.934841C13.5131 1.53343 13.9071 2.35415 13.9717 3.23172L14.9873 3.01101L15 3.06863V3.00027H16V13.8743L10.5479 15.4788L5.34766 14.0003H0V3.00027H6V3.01883L7.02637 3.24246C7.08833 2.36446 7.48054 1.54222 8.12402 0.941677C8.76745 0.341255 9.61409 0.0064727 10.4941 0.00515345ZM13.9209 4.2659C13.5129 6.53684 11.5141 9.06283 11 9.68191V14.3001L15 13.1262V4.03152L13.9209 4.2659ZM6 13.1458L10 14.2835V9.68289C9.48692 9.06479 7.49304 6.54557 7.08105 4.27664L6 4.04226V13.1458ZM1 4.00027V13.0003L5 13.0169V4.00027H1ZM10.5 1.00027C9.83696 1.00027 9.20126 1.26385 8.73242 1.73269C8.26367 2.20152 8 2.8373 8 3.50027C8.00018 5.30624 9.71904 7.70935 10.5 8.7073C11.281 7.70935 12.9998 5.30624 13 3.50027C13 2.8373 12.7363 2.20152 12.2676 1.73269C11.7987 1.26385 11.163 1.00027 10.5 1.00027ZM10.2324 2.25222C10.4955 2.19939 10.7684 2.2263 11.0166 2.3284C11.2647 2.43053 11.4773 2.60376 11.627 2.82644C11.7767 3.04924 11.8576 3.31193 11.8584 3.58035C11.8583 3.94343 11.7145 4.28848 11.46 4.54324C11.2053 4.79807 10.8603 4.94141 10.5 4.94168C10.2316 4.94168 9.96933 4.8622 9.74609 4.71316C9.52294 4.56417 9.34901 4.35255 9.24609 4.10476C9.1432 3.85686 9.1159 3.58389 9.16797 3.32058C9.22003 3.05735 9.34867 2.81532 9.53809 2.62527C9.72758 2.43522 9.96931 2.30509 10.2324 2.25222ZM10.5703 3.22976C10.501 3.21588 10.4287 3.22335 10.3633 3.25027C10.2982 3.27719 10.2425 3.32267 10.2031 3.38113C10.1637 3.43987 10.1418 3.50959 10.1416 3.58035C10.1422 3.67777 10.181 3.76859 10.248 3.83523C10.3151 3.90166 10.4056 3.93875 10.5 3.93875C10.5708 3.93875 10.6404 3.91847 10.6992 3.87918C10.758 3.83989 10.8039 3.78337 10.8311 3.71804C10.858 3.65293 10.8651 3.58114 10.8516 3.51199C10.8379 3.44271 10.8037 3.37846 10.7539 3.3284C10.7039 3.27829 10.6397 3.24369 10.5703 3.22976Z" fill="currentColor"/>
</svg>
