<svg width="16" height="16" viewBox="0 0 16 16" fill="none" xmlns="http://www.w3.org/2000/svg">
<path d="M8.02734 0.000268936C9.25239 0.00029307 10.4277 0.493395 11.2939 1.37234C12.1602 2.25127 12.6464 3.44381 12.6465 4.68679V6.55496C13.0084 6.56353 13.3525 6.71505 13.6055 6.97781C13.8583 7.24049 14 7.59305 14 7.96023V14.594C14 14.9669 13.8536 15.3245 13.5938 15.5882C13.3339 15.8517 12.9817 16.0003 12.6143 16.0003H3.38574C3.01831 16.0003 2.66611 15.8517 2.40625 15.5882C2.1464 15.3245 2.00004 14.9669 2 14.594V7.9573C2 7.58437 2.14636 7.22589 2.40625 6.96218C2.66609 6.69873 3.0184 6.55106 3.38574 6.55105H3.4082V4.68679C3.40829 3.44381 3.89453 2.25127 4.76074 1.37234C5.62701 0.493429 6.8023 0.000268936 8.02734 0.000268936ZM3.38574 7.48855C3.26338 7.48856 3.14616 7.53756 3.05957 7.62527C2.97294 7.71317 2.92383 7.83299 2.92383 7.9573V14.594C2.92387 14.7183 2.97298 14.8372 3.05957 14.9251C3.14618 15.0129 3.26329 15.0628 3.38574 15.0628H12.6143C12.7367 15.0628 12.8538 15.0129 12.9404 14.9251C13.027 14.8372 13.0761 14.7183 13.0762 14.594V7.9573C13.0748 7.83964 13.0297 7.72651 12.9502 7.64089C12.8706 7.55527 12.7622 7.50264 12.6465 7.49441H3.4082V7.48855H3.38574ZM8.02734 9.37429C8.27233 9.37432 8.50743 9.47293 8.68066 9.64871C8.85391 9.82451 8.95117 10.0632 8.95117 10.3118C8.94932 10.4734 8.90527 10.6316 8.82422 10.7708C8.74317 10.9099 8.62788 11.0252 8.48926 11.1048V13.1243H7.56543V11.1057C7.42662 11.0262 7.31057 10.911 7.22949 10.7718C7.14843 10.6324 7.10512 10.4736 7.10352 10.3118C7.10352 10.0632 7.20077 9.82451 7.37402 9.64871C7.54727 9.47295 7.78236 9.37429 8.02734 9.37429ZM8.02734 0.937769C7.04729 0.937769 6.10708 1.33226 5.41406 2.03543C4.72111 2.73855 4.33212 3.69243 4.33203 4.68679V6.55105H11.7227V4.68679C11.7226 3.69244 11.3336 2.73855 10.6406 2.03543C9.94762 1.33224 9.0074 0.937793 8.02734 0.937769Z" fill="currentColor"/>
</svg>
