<svg width="16" height="16" viewBox="0 0 16 16" fill="none" xmlns="http://www.w3.org/2000/svg">
<path d="M11.5 0.5H4.5C3.94772 0.5 3.5 0.947715 3.5 1.5V14.5C3.5 15.0523 3.94772 15.5 4.5 15.5H11.5C12.0523 15.5 12.5 15.0523 12.5 14.5V1.5C12.5 0.947715 12.0523 0.5 11.5 0.5ZM4.5 1.5H11.5V11.5H4.5V1.5ZM4.5 12.5H11.5V14.5H4.5V12.5ZM8 13.125C7.79289 13.125 7.625 13.2929 7.625 13.5C7.625 13.7071 7.79289 13.875 8 13.875C8.20711 13.875 8.375 13.7071 8.375 13.5C8.375 13.2929 8.20711 13.125 8 13.125Z" fill="currentColor"/>
</svg>
