<svg width="16" height="16" viewBox="0 0 16 16" fill="none" xmlns="http://www.w3.org/2000/svg">
<path d="M1.88179 5.99988C2.38093 5.99988 2.85986 6.21087 3.21285 6.58582C3.56583 6.96086 3.76458 7.46949 3.76461 7.99988C3.76461 8.39544 3.65406 8.78231 3.44722 9.11121C3.24039 9.44005 2.94641 9.69618 2.6025 9.84753C2.25855 9.9989 1.87974 10.039 1.51461 9.96179C1.14965 9.88458 0.814866 9.6935 0.551716 9.41394C0.288535 9.13431 0.10876 8.77834 0.036091 8.3905C-0.03654 8.00254 0.001042 7.59971 0.143513 7.23425C0.286005 6.86899 0.527444 6.55647 0.836872 6.33679C1.14621 6.1173 1.50982 5.99998 1.88179 5.99988ZM7.99996 5.99988C8.49917 5.99989 8.97801 6.21075 9.33101 6.58582C9.68397 6.96085 9.88176 7.46951 9.88179 7.99988C9.88179 8.3954 9.77218 8.78233 9.56539 9.11121C9.35864 9.43997 9.06444 9.69614 8.72066 9.84753C8.37675 9.99889 7.99787 10.0389 7.63277 9.96179C7.26763 9.88462 6.93216 9.69365 6.6689 9.41394C6.40578 9.13431 6.22592 8.77831 6.15328 8.3905C6.08065 8.00254 6.11823 7.59971 6.2607 7.23425C6.40319 6.86892 6.64459 6.5565 6.95406 6.33679C7.2636 6.11706 7.62769 5.99988 7.99996 5.99988ZM14.1171 5.99988C14.6163 5.99988 15.0952 6.21085 15.4482 6.58582C15.8012 6.96086 15.9999 7.46949 16 7.99988C16 8.39544 15.8894 8.78231 15.6826 9.11121C15.4757 9.44005 15.1818 9.69617 14.8378 9.84753C14.4939 9.99891 14.1151 10.039 13.75 9.96179C13.3849 9.88458 13.0493 9.69356 12.7861 9.41394C12.5231 9.13437 12.3441 8.77817 12.2714 8.3905C12.1988 8.00254 12.2364 7.59971 12.3789 7.23425C12.5214 6.869 12.7628 6.55646 13.0722 6.33679C13.3816 6.1173 13.7452 5.99997 14.1171 5.99988Z" fill="currentColor"/>
</svg>
