<svg width="16" height="17" viewBox="0 0 16 17" fill="none" xmlns="http://www.w3.org/2000/svg">
<path d="M7.08691 2.82677H0.963867V15.0738H14.1523V7.06603H15.0947V16.0153H0.0214844V1.88537H7.08691V2.82677ZM12.2441 0.415641C12.7783 -0.117539 13.71 -0.117547 14.2432 0.415641L15.5645 1.73693C15.831 2.00353 15.9785 2.3582 15.9785 2.73595C15.9784 3.11357 15.831 3.46846 15.5645 3.73498L8.4668 10.8326L3.52246 12.4947L5.14453 7.51427L12.2441 0.415641ZM5.28223 10.1354L5.8623 10.7145L7.69238 10.0992L5.88281 8.29162L5.28223 10.1354ZM6.45801 7.5338L8.44531 9.52111L12.2002 5.76623L10.2129 3.77892L6.45801 7.5338ZM10.8789 3.11291L12.8662 5.10021L13.5537 4.41369L11.5654 2.42541L10.8789 3.11291ZM13.5771 1.08166C13.4001 0.903622 13.0901 0.903641 12.9111 1.08166L12.2324 1.76037L14.2207 3.74865L14.8984 3.06896C14.9869 2.97956 15.036 2.86301 15.0361 2.73693C15.0361 2.6107 14.987 2.49244 14.8984 2.40295L13.5771 1.08166Z" fill="currentColor"/>
</svg>
