<svg width="16" height="16" viewBox="0 0 16 16" fill="none" xmlns="http://www.w3.org/2000/svg">
<path d="M9.08276 0.999878C10.5409 1.00147 11.9394 1.58119 12.9705 2.61218C14.0015 3.64326 14.5811 5.04172 14.5828 6.49988C14.5812 7.95808 14.0016 9.35647 12.9705 10.3876C11.9394 11.4186 10.5409 11.9983 9.08276 11.9999H6.17065L8.81714 14.6464L8.11011 15.3534L4.25659 11.4999L8.11108 7.64636L8.81812 8.35339L6.17065 10.9999H9.08276C10.2762 10.9999 11.4215 10.5254 12.2654 9.68152C13.109 8.83765 13.5828 7.69315 13.5828 6.49988C13.5827 5.30659 13.1091 4.16209 12.2654 3.31824C11.4215 2.47432 10.2762 1.99988 9.08276 1.99988H1.99976V0.999878H9.08276Z" fill="currentColor"/>
</svg>
