<svg width="16" height="16" viewBox="0 0 16 16" fill="none" xmlns="http://www.w3.org/2000/svg">
<path d="M7.99902 6.43082C8.17552 6.4302 8.34535 6.49897 8.47168 6.62222L10.9688 9.12027C11.0073 9.15914 11.0379 9.20536 11.0586 9.25601C11.0793 9.30658 11.09 9.36057 11.0898 9.41519C11.09 9.46977 11.0794 9.52489 11.0586 9.57535C11.0379 9.62559 11.0071 9.67061 10.9688 9.70914C10.8902 9.78747 10.7838 9.83268 10.6729 9.83316C10.5624 9.83272 10.4558 9.78746 10.3779 9.70914L8.41309 7.74429V14.7453C8.41284 14.8558 8.36918 14.962 8.29102 15.0402C8.21285 15.1184 8.10664 15.162 7.99609 15.1623C7.88648 15.1608 7.78175 15.1166 7.7041 15.0392C7.66564 15.0007 7.63502 14.9548 7.61426 14.9044C7.59347 14.854 7.58283 14.7999 7.58301 14.7453V7.74429L5.61719 9.70914C5.53863 9.78757 5.4323 9.8328 5.32129 9.83316C5.26671 9.83304 5.21246 9.82199 5.16211 9.80093C5.11168 9.77982 5.06578 9.74801 5.02734 9.70914C4.94929 9.6313 4.90474 9.52544 4.9043 9.41519C4.90438 9.36035 4.91548 9.30568 4.93652 9.25504C4.95756 9.20453 4.98863 9.15893 5.02734 9.12027L7.52441 6.62222C7.65118 6.49861 7.82196 6.42972 7.99902 6.43082ZM9.55566 0.839996C10.7171 0.841309 11.831 1.303 12.6523 2.12418C13.4738 2.94564 13.9363 4.06011 13.9375 5.22183C13.9375 5.36148 13.9242 5.51623 13.9131 5.62906C14.0459 5.68685 14.1758 5.75207 14.3008 5.82535C14.8224 6.13594 15.2538 6.57727 15.5527 7.10562C15.8516 7.63389 16.0073 8.23112 16.0049 8.83804C16.0041 9.77117 15.6333 10.6664 14.9736 11.3263C14.3138 11.9862 13.4186 12.3578 12.4854 12.3586L11.2275 12.3615C11.1727 12.3616 11.118 12.3502 11.0674 12.3293C11.017 12.3084 10.9712 12.2779 10.9326 12.2394C10.8939 12.2007 10.8627 12.1543 10.8418 12.1037C10.8209 12.053 10.8104 11.9983 10.8105 11.9435C10.8105 11.8889 10.8209 11.8349 10.8418 11.7843C10.8627 11.7337 10.8939 11.6873 10.9326 11.6486C10.9712 11.6101 11.017 11.5796 11.0674 11.5587C11.118 11.5378 11.1727 11.5274 11.2275 11.5275H12.4795C13.1902 11.526 13.8714 11.2428 14.374 10.7404C14.8767 10.2377 15.1597 9.55573 15.1611 8.84488C15.1629 8.38163 15.0445 7.92583 14.8164 7.52261C14.5882 7.11926 14.2585 6.78218 13.8604 6.54507C13.7302 6.47157 13.595 6.40686 13.4561 6.35172C13.3265 6.29732 13.2179 6.20226 13.1465 6.08121C13.0751 5.96011 13.0445 5.81863 13.0596 5.67886V5.67203C13.0776 5.52454 13.0879 5.37625 13.0908 5.22769C13.0898 4.28717 12.7158 3.38496 12.0508 2.71988C11.3858 2.05488 10.4844 1.68091 9.54395 1.67984C8.98684 1.6814 8.4372 1.81342 7.94043 2.06558C7.44372 2.31774 7.01268 2.68325 6.68262 3.13199C6.56617 3.29196 6.43837 3.51979 6.43652 3.52164C6.39841 3.59029 6.34654 3.65067 6.28418 3.69839C6.22188 3.746 6.15034 3.78016 6.07422 3.79898C5.99787 3.8179 5.91845 3.82144 5.84082 3.80875C5.76311 3.79603 5.68847 3.76807 5.62207 3.72574C5.50486 3.64974 5.38086 3.58426 5.25195 3.53043C5.02869 3.44493 4.7918 3.40092 4.55273 3.40152C4.02346 3.40201 3.51508 3.61243 3.14062 3.98648C2.76616 4.3606 2.55567 4.86829 2.55469 5.39761C2.55789 5.52432 2.57159 5.65033 2.59668 5.77457C2.62168 5.90986 2.60362 6.04955 2.54492 6.17398C2.48618 6.29844 2.38991 6.40121 2.26953 6.46793C2.14866 6.53244 2.03186 6.60475 1.91992 6.68375C1.58289 6.93255 1.3092 7.25768 1.12109 7.63199C0.93299 8.00643 0.835327 8.41999 0.836914 8.83902C0.83838 9.54985 1.1214 10.2319 1.62402 10.7345C2.12667 11.2372 2.80868 11.5202 3.51953 11.5216H4.77344C4.88387 11.5219 4.99025 11.5656 5.06836 11.6437C5.14653 11.7219 5.19019 11.8281 5.19043 11.9386C5.1904 12.0492 5.14652 12.1554 5.06836 12.2336C4.99019 12.3117 4.88398 12.3556 4.77344 12.3556H3.51953C2.58738 12.3534 1.69386 11.982 1.03516 11.3224C0.376487 10.6627 0.00569264 9.76832 0.00488281 8.83609C0.00617413 8.28749 0.135273 7.74609 0.381836 7.25601C0.628314 6.76618 0.985321 6.34077 1.4248 6.01285C1.53296 5.93458 1.64588 5.86144 1.76172 5.79507C1.74096 5.66102 1.72992 5.52545 1.72852 5.3898C1.72951 4.63983 2.02828 3.92109 2.55859 3.39078C3.08886 2.8606 3.80777 2.56173 4.55762 2.5607C4.89808 2.5611 5.2358 2.62441 5.55371 2.74625C5.65669 2.78583 5.75698 2.83249 5.85352 2.88589C5.90252 2.80916 5.96134 2.71613 6.02051 2.63199C6.42865 2.07783 6.96136 1.62684 7.5752 1.31558C8.18901 1.00436 8.86746 0.841772 9.55566 0.839996Z" fill="currentColor"/>
</svg>
