<svg width="16" height="16" viewBox="0 0 16 16" fill="none" xmlns="http://www.w3.org/2000/svg">
<path d="M8.44141 15.0782H14.415V16H1.62012V15.0782H7.52735V12.3496H8.44141V15.0782ZM10.2998 3.05176e-05C10.652 0.00101757 11.0012 0.0713248 11.3262 0.207062C11.651 0.342796 11.9462 0.5413 12.1943 0.791046C12.4425 1.04083 12.6388 1.33736 12.7725 1.66312C12.9061 1.98877 12.9748 2.33749 12.9736 2.68948V9.06155H13.2559C13.5545 9.06288 13.8401 9.18296 14.0508 9.39456C14.2615 9.60623 14.3799 9.89274 14.3799 10.1914V11.1807C14.3799 11.4794 14.2616 11.7669 14.0508 11.9785C13.8401 12.1899 13.5543 12.3093 13.2559 12.3106L2.70996 12.3184C2.41075 12.3171 2.12396 12.1967 1.91309 11.9844C1.7023 11.7721 1.58421 11.4847 1.58496 11.1856V10.1944C1.58508 9.8958 1.70338 9.60906 1.91407 9.39749C2.12484 9.18593 2.41132 9.0667 2.70996 9.06546H2.99219V2.68948C2.98979 1.97888 3.26988 1.29636 3.77051 0.792023C4.2712 0.287739 4.95148 0.00277921 5.66211 3.05176e-05H10.2998ZM2.70996 9.98148C2.65396 9.98197 2.59988 10.0041 2.56055 10.044C2.52134 10.0837 2.49891 10.1376 2.49903 10.1934V11.1836C2.4989 11.2113 2.50422 11.239 2.51465 11.2647C2.52518 11.2904 2.54097 11.3143 2.56055 11.334C2.58009 11.3537 2.60334 11.3692 2.62891 11.3799C2.65454 11.3907 2.68218 11.3964 2.70996 11.3965H13.2559C13.2836 11.3964 13.3114 11.3906 13.3369 11.3799C13.3624 11.3692 13.3858 11.3537 13.4053 11.334C13.4248 11.3143 13.4397 11.2904 13.4502 11.2647C13.4607 11.239 13.4669 11.2114 13.4668 11.1836V10.1934C13.4669 10.1657 13.4607 10.1379 13.4502 10.1123C13.4397 10.0869 13.4246 10.0636 13.4053 10.044C13.3858 10.0244 13.3624 10.0088 13.3369 9.99808C13.3114 9.98736 13.2836 9.98164 13.2559 9.98148H2.70996ZM5.66211 0.920929C5.1945 0.922931 4.74659 1.10972 4.417 1.44144C4.08749 1.77306 3.9034 2.222 3.9043 2.68948V9.06155H12.0566V2.68948C12.0575 2.22234 11.873 1.77398 11.5439 1.44241C11.2147 1.11083 10.7671 0.923299 10.2998 0.920929H5.66211ZM9.70215 3.54007L6.39942 3.53714V2.61917H9.70215V3.54007Z" fill="currentColor"/>
</svg>
