<svg width="16" height="16" viewBox="0 0 16 16" fill="none" xmlns="http://www.w3.org/2000/svg">
<path d="M13.0928 7.42188H12.1338V3.48242H10.2686V2.52588H13.0928V7.42188ZM9.7373 7.42188H6.86084V6.46533H8.77881V2.52588H6.96826V3.60205H6.00195V2.52588C6.00195 2.26221 6.10547 2.00928 6.29004 1.8252C6.47461 1.64111 6.72705 1.53809 6.99121 1.53809H8.79834C9.0625 1.53809 9.31494 1.64111 9.49951 1.8252C9.68408 2.00928 9.7876 2.26221 9.7876 2.52588L9.7373 7.42188ZM5.50977 7.42188H2.96582V6.46533H4.54883V5.01318H2.96582V4.05664H4.54883V3.48242H2.96582V2.52588H5.50977V7.42188ZM14.0488 8.37842H1.94971C1.4248 8.37842 0.996582 8.80664 0.996582 9.33154V13.4795C0.996582 14.0044 1.4248 14.4326 1.94971 14.4326H14.0488C14.5737 14.4326 15.002 14.0044 15.002 13.4795V9.33154C15.002 8.80664 14.5737 8.37842 14.0488 8.37842ZM14.0498 13.4795H1.95068V9.33154H14.0498V13.4795ZM6.64355 15.5H9.35645V16H6.64355V15.5ZM6.64355 14.4326H9.35645V15.5H6.64355V14.4326Z" fill="currentColor"/>
</svg>
