<svg width="16" height="16" viewBox="0 0 16 16" fill="none" xmlns="http://www.w3.org/2000/svg">
<path d="M7.08331 0.0564379C7.69196 -0.0188298 8.30765 -0.0187955 8.91631 0.0564379L9.64678 2.49296C10.0219 2.60424 10.3852 2.75292 10.7298 2.93827L12.9671 1.73417C13.4474 2.11669 13.8825 2.55268 14.2649 3.033L13.0618 5.27031C13.2476 5.61419 13.3974 5.97647 13.5081 6.35136L15.9437 7.08378C16.0189 7.69246 16.0189 8.30811 15.9437 8.91679L13.5081 9.64726C13.397 10.0223 13.2472 10.3849 13.0618 10.7293L14.2649 12.9656C13.8827 13.4465 13.4467 13.8828 12.9661 14.2654L10.7298 13.0623C10.3853 13.2478 10.0219 13.3965 9.64678 13.5076L8.91631 15.9441C8.30765 16.0194 7.69197 16.0194 7.08331 15.9441L6.35284 13.5076C5.97787 13.3965 5.61514 13.2477 5.27081 13.0623L3.0335 14.2654C2.5526 13.8833 2.11676 13.4475 1.73467 12.9666L2.93877 10.7322C2.75312 10.3875 2.60341 10.0247 2.49249 9.64921L0.0569384 8.91874C-0.0183307 8.31002 -0.0183262 7.69446 0.0569384 7.08573L2.49346 6.35136C2.60456 5.97625 2.75426 5.61378 2.93975 5.26933L1.73565 3.03398C2.11717 2.55285 2.55266 2.11702 3.0335 1.73515L5.27081 2.93925C5.61458 2.75243 5.97743 2.60319 6.35284 2.49296L7.08331 0.0564379ZM7.79815 0.943157L7.25225 2.76152L7.10577 3.24882L6.61846 3.39433C6.30639 3.48632 6.00505 3.61129 5.71905 3.7664L5.27081 4.00956L3.15752 2.87089C3.05872 2.96405 2.96451 3.06488 2.87041 3.15898L4.00518 5.27226L3.76495 5.71855C3.60877 6.00544 3.4828 6.3087 3.38995 6.62187L3.24541 7.10917L0.940727 7.7996V8.19999L3.24444 8.89042L3.38799 9.37773C3.48243 9.6908 3.60912 9.99356 3.76495 10.281L4.00713 10.7283L2.87041 12.8396C2.96355 12.9394 3.06442 13.0336 3.1585 13.1277L5.27081 11.992L5.71905 12.2332C6.00587 12.3896 6.30845 12.5154 6.62139 12.6092L7.1087 12.7547L7.2542 13.242L7.79913 15.0603H8.20049L8.74541 13.242L8.89092 12.7547L9.3792 12.6092C9.69228 12.5148 9.99509 12.3891 10.2825 12.2332L10.7298 11.992L12.8372 13.1297C12.9362 13.0363 13.0316 12.94 13.1243 12.8416L12.2288 11.1756L11.9886 10.7283L12.2298 10.282C12.3866 9.99521 12.5123 9.69195 12.6058 9.3787L12.7513 8.8914H12.7552L15.0589 8.20097V7.7996L13.2444 7.25273L12.7571 7.10722L12.6116 6.61991C12.5177 6.30744 12.392 6.00492 12.2356 5.71855L11.9954 5.27421L12.2356 4.82695L13.1292 3.16191C13.036 3.06215 12.9352 2.96793 12.8411 2.87382L10.7298 4.01054L10.2825 3.77031C9.9952 3.6142 9.69236 3.48845 9.3792 3.39433L8.89092 3.24882L8.74541 2.76152L8.20049 0.943157H7.79815ZM8.0003 5.64726C8.62418 5.64733 9.2222 5.89559 9.66338 6.33671C10.1046 6.77797 10.3528 7.37673 10.3528 8.00077C10.3527 8.46596 10.2148 8.92061 9.95635 9.30741C9.69782 9.69434 9.33061 9.99651 8.90069 10.1746C8.47086 10.3526 7.99762 10.3991 7.54131 10.3084C7.08489 10.2176 6.6653 9.99292 6.33624 9.66386C6.00735 9.33492 5.78352 8.91595 5.69268 8.45976C5.60191 8.00344 5.64849 7.53024 5.82647 7.10038C6.00456 6.67044 6.30574 6.30229 6.69268 6.04374C7.07962 5.7852 7.53493 5.64726 8.0003 5.64726ZM8.54034 6.69609C8.28244 6.58926 7.99869 6.5616 7.72491 6.61601C7.45105 6.67048 7.19871 6.80431 7.00127 7.00175C6.80388 7.19918 6.67 7.45157 6.61553 7.72538C6.56117 7.99911 6.58881 8.28298 6.69561 8.54081C6.80247 8.79871 6.984 9.01951 7.21612 9.1746C7.44817 9.32951 7.72128 9.41191 8.0003 9.41191C8.37458 9.41183 8.73366 9.26346 8.99834 8.99882C9.263 8.73417 9.41131 8.37504 9.41143 8.00077C9.41143 7.72155 9.32925 7.44778 9.17413 7.21562C9.01902 6.98354 8.79822 6.80292 8.54034 6.69609Z" fill="currentColor"/>
</svg>
