<svg width="16" height="16" viewBox="0 0 16 16" fill="none" xmlns="http://www.w3.org/2000/svg">
<path d="M12.002 10.2539C11.5312 10.2539 11.0938 10.4268 10.7607 10.7148L5.88281 8.03271C5.92188 7.85791 5.94238 7.67529 5.94238 7.48779C5.94238 7.31299 5.92383 7.14307 5.88867 6.97803L10.7324 4.31299C11.0703 4.61523 11.5137 4.7998 12.002 4.7998C13.0664 4.7998 13.9336 3.93262 13.9336 2.86816C13.9336 1.80371 13.0664 0.936523 12.002 0.936523C10.9375 0.936523 10.0703 1.80371 10.0703 2.86816C10.0703 3.04297 10.0889 3.21289 10.124 3.37793L5.28027 6.04297C4.94238 5.74072 4.49902 5.55615 4.01074 5.55615C2.94629 5.55615 2.07910 6.42334 2.07910 7.48779C2.07910 8.55225 2.94629 9.41943 4.01074 9.41943C4.50879 9.41943 4.95996 9.22705 5.2998 8.91504L10.1777 11.6084C10.1396 11.7773 10.1191 11.9531 10.1191 12.1338C10.1191 13.1982 10.9863 14.0654 12.0508 14.0654C13.1152 14.0654 13.9824 13.1982 13.9824 12.1338C13.9824 11.0693 13.1152 10.2021 12.0508 10.2021L12.002 10.2539ZM12.002 1.88965C12.5449 1.88965 12.9814 2.32617 12.9814 2.86914C12.9814 3.41211 12.5449 3.84863 12.002 3.84863C11.459 3.84863 11.0225 3.41211 11.0225 2.86914C11.0225 2.32617 11.459 1.88965 12.002 1.88965ZM4.01074 8.46777C3.46777 8.46777 3.03125 8.03125 3.03125 7.48828C3.03125 6.94531 3.46777 6.50879 4.01074 6.50879C4.55371 6.50879 4.99023 6.94531 4.99023 7.48828C4.99023 8.03125 4.55371 8.46777 4.01074 8.46777ZM12.0508 13.1133C11.5078 13.1133 11.0713 12.6768 11.0713 12.1338C11.0713 11.5908 11.5078 11.1543 12.0508 11.1543C12.5938 11.1543 13.0303 11.5908 13.0303 12.1338C13.0303 12.6768 12.5938 13.1133 12.0508 13.1133Z" fill="currentColor"/>
</svg>
