<svg width="16" height="16" viewBox="0 0 16 16" fill="none" xmlns="http://www.w3.org/2000/svg">
<path d="M7 0V0.533203C7 0.816 7.10556 1.08709 7.29297 1.28711C7.48051 1.48715 7.73478 1.59961 8 1.59961C8.26522 1.59961 8.5195 1.48715 8.70703 1.28711C8.89444 1.08709 9 0.816 9 0.533203V0H12.5V16H9V15.4668C9 15.184 8.89444 14.9129 8.70703 14.7129C8.5195 14.5129 8.26522 14.4004 8 14.4004C7.73478 14.4004 7.48051 14.5129 7.29297 14.7129C7.10556 14.9129 7 15.184 7 15.4668V16H3.5V0H7ZM4.5 8.5332V14.9336H6.06348C6.17397 14.4752 6.42374 14.0684 6.77441 13.7783C7.12506 13.4884 7.55632 13.3311 8 13.3311C8.44368 13.3311 8.87494 13.4884 9.22559 13.7783C9.57626 14.0684 9.82603 14.4752 9.93652 14.9336H11.5V8.5332H4.5ZM4.5 1.06641V7.4668H11.5V1.06641H9.93652C9.82603 1.52482 9.57626 1.93164 9.22559 2.22168C8.87494 2.51164 8.44368 2.66895 8 2.66895C7.55632 2.66895 7.12506 2.51164 6.77441 2.22168C6.42374 1.93164 6.17397 1.52482 6.06348 1.06641H4.5Z" fill="currentColor"/>
</svg>
