<svg width="16" height="16" viewBox="0 0 16 16" fill="none" xmlns="http://www.w3.org/2000/svg">
<path d="M16 12.5273L15.1025 12.3184C14.7506 12.2374 14.3342 12.1597 13.8232 12.0947C13.3122 12.0298 12.7513 11.9748 12.1367 11.9277C11.5223 11.8807 10.8487 11.8703 10.1533 11.8232C9.67246 11.7903 9.18819 11.7792 8.68945 11.7764V13.4805H10.7051C10.8799 13.4748 11.0537 13.5056 11.2158 13.5713C11.3778 13.6369 11.5249 13.7348 11.6465 13.8604C11.7686 13.9844 11.8634 14.133 11.9248 14.2959C11.9862 14.459 12.0128 14.6337 12.0029 14.8076L4.0459 14.8047C4.03564 14.6368 4.05891 14.4691 4.11523 14.3105C4.17166 14.1519 4.25995 14.0056 4.37402 13.8818C4.48867 13.7586 4.62735 13.6599 4.78125 13.5918C4.93526 13.5237 5.10212 13.4873 5.27051 13.4854H7.28809V11.7803C6.79964 11.7897 6.32198 11.8053 5.84766 11.8213C5.14197 11.8448 4.47116 11.8769 3.86426 11.9258C3.25723 11.9747 2.65572 12.0297 2.1748 12.0928C1.69397 12.1558 1.24744 12.2355 0.895508 12.3164L0 12.5254V1.32227L0.895508 1.5293C1.31703 1.62545 1.7446 1.69529 2.1748 1.73828C2.68678 1.79381 3.24782 1.80909 3.86426 1.87402C4.52389 1.92949 5.18581 1.95067 5.84766 1.93848C6.53468 1.93848 7.20005 1.97852 8 1.97852C8.79976 1.9785 9.49634 1.93848 10.1992 1.93848C10.9021 1.93845 11.567 1.8504 12.1758 1.79395C12.7843 1.73751 13.3337 1.68208 13.8389 1.61719C14.2636 1.56693 14.686 1.49258 15.1025 1.39551L16 1.18457V12.5273ZM14.9395 2.4209C14.5226 2.48301 13.7349 2.56557 13.2305 2.62109C12.7002 2.69729 12.1654 2.74276 11.6299 2.75684L9.87793 2.86035H6.16602L4.37793 2.75684C3.80306 2.72579 3.29015 2.67002 2.77832 2.62109C2.2664 2.57216 1.43904 2.50536 1.06348 2.44043L1.0625 11.2129C1.47944 11.1263 2.30409 11.0658 2.72852 11.0244C3.25885 10.9513 3.79291 10.9086 4.32812 10.8965L6.11621 10.8154L8.00391 10.7979H9.90723L11.6953 10.8779C12.2965 10.9109 12.817 10.9514 13.2949 11.0088C13.7344 11.054 14.5056 11.0972 14.9395 11.1885V2.4209ZM9.3418 6.8916L6.70215 8.49023V5.21777L9.3418 6.8916Z" fill="currentColor"/>
</svg>
