<svg width="16" height="16" viewBox="0 0 16 16" fill="none" xmlns="http://www.w3.org/2000/svg">
<path d="M11.7002 1.58008C10.6455 0.525391 8.93213 0.525391 7.87744 1.58008L6.08887 3.36865L6.79590 4.07568L8.58447 2.28711C9.25684 1.61475 10.3208 1.61475 10.9932 2.28711C11.6655 2.95947 11.6655 4.02344 10.9932 4.69580L9.20459 6.48438L9.91162 7.19141L11.7002 5.40283C12.7549 4.34814 12.7549 2.63477 11.7002 1.58008ZM6.79590 11.9121L5.00732 13.7007C4.33496 14.373 3.27100 14.373 2.59863 13.7007C1.92627 13.0283 1.92627 11.9644 2.59863 11.292L4.38721 9.50342L3.68018 8.79639L1.89160 10.585C0.836914 11.6396 0.836914 13.353 1.89160 14.4077C2.94629 15.4624 4.65967 15.4624 5.71436 14.4077L7.50293 12.6191L6.79590 11.9121ZM1.58691 2.17432L0.879883 2.88135L13.1191 15.1206L13.8262 14.4136L1.58691 2.17432ZM9.91162 5.40283L5.71436 9.60010L6.42139 10.3071L10.6187 6.10986L9.91162 5.40283Z" fill="currentColor"/>
</svg>
