<svg width="16" height="16" viewBox="0 0 16 16" fill="none" xmlns="http://www.w3.org/2000/svg">
<path d="M8.00098 8.64259C9.91478 8.62604 11.7713 9.35775 13.2373 10.7061C14.7034 12.0544 15.6829 13.9315 16 16H14.9258C14.6711 14.4779 13.991 13.0798 12.9795 12C11.6461 10.5823 9.86075 9.78908 8.00293 9.78908C6.14522 9.78914 4.36065 10.5824 3.02734 12C2.01591 13.08 1.33598 14.4779 1.08105 16H0C0.317361 13.9314 1.29742 12.0544 2.76367 10.7061C4.22994 9.35771 6.08694 8.62593 8.00098 8.64259ZM8.00195 0C8.99887 -0.0113537 9.95922 0.411719 10.6719 1.1758C11.3848 1.9403 11.7917 2.98417 11.8027 4.07716C11.792 5.17049 11.3849 6.21466 10.6719 6.97951C9.95897 7.74418 8.99847 8.16774 8.00098 8.15626C7.50688 8.16216 7.01615 8.06117 6.55762 7.85939C6.09918 7.65763 5.68123 7.35913 5.32812 6.98048C4.97498 6.60177 4.69304 6.15035 4.49902 5.65236C4.30501 5.15434 4.20259 4.61864 4.19727 4.07716C4.20279 3.53575 4.30584 3.00083 4.5 2.50294C4.69427 2.00486 4.97661 1.55345 5.33008 1.17482C5.68353 0.796224 6.10177 0.497396 6.56055 0.295913C7.01869 0.0947632 7.50845 -0.00605413 8.00195 0ZM8.00391 1.1465C7.2861 1.13814 6.59432 1.44222 6.08105 1.9922C5.56794 2.54207 5.27522 3.29269 5.2666 4.07912C5.30133 4.84813 5.60435 5.57369 6.11328 6.10451C6.6221 6.63515 7.29762 6.93154 8 6.93165C8.70256 6.93165 9.37877 6.6353 9.8877 6.10451C10.3966 5.57369 10.6996 4.84813 10.7344 4.07912C10.7259 3.2933 10.4333 2.54298 9.9209 1.99318C9.47258 1.51226 8.88798 1.21913 8.26855 1.15822L8.00391 1.1465Z" fill="currentColor"/>
</svg>
