<svg width="16" height="16" viewBox="0 0 16 16" fill="none" xmlns="http://www.w3.org/2000/svg">
<path d="M16.001 14.667H0L7.95312 0.666016L16.001 14.667ZM1.65723 13.7021H14.332L7.95508 2.61621L1.65723 13.7021ZM7.99805 10.8369C8.25372 10.837 8.49882 10.9384 8.67969 11.1191C8.86066 11.3001 8.96289 11.5458 8.96289 11.8018C8.96288 11.9926 8.90583 12.1792 8.7998 12.3379C8.6938 12.4965 8.54341 12.6203 8.36719 12.6934C8.19088 12.7664 7.99673 12.7853 7.80957 12.748C7.62246 12.7108 7.45036 12.6192 7.31543 12.4844C7.18051 12.3495 7.08804 12.1774 7.05078 11.9902C7.01355 11.8031 7.03343 11.6089 7.10645 11.4326C7.17948 11.2563 7.30322 11.1051 7.46191 10.999C7.62053 10.8931 7.80734 10.8369 7.99805 10.8369ZM8.48047 9.78223H7.51562V5.98145H8.48047V9.78223Z" fill="currentColor"/>
</svg>
