<svg width="17" height="17" viewBox="0 0 17 17" fill="none" xmlns="http://www.w3.org/2000/svg">
<path d="M6.36532 0.0215524C8.03984 -0.00570427 9.66026 0.614772 10.8888 1.753C12.1174 2.89133 12.8588 4.46002 12.9591 6.1319C13.0593 7.80376 12.5105 9.44963 11.4268 10.7266L16.5997 15.8995L15.8995 16.5997L10.7208 11.4268C9.44196 12.4968 7.80082 13.0347 6.13681 12.9288C4.47284 12.8228 2.91315 12.0809 1.78036 10.8575C0.647651 9.63402 0.028633 8.02172 0.0508721 6.35456C0.0732161 4.68746 0.734547 3.09222 1.8995 1.89948C3.09026 0.721592 4.69064 0.0489271 6.36532 0.0215524ZM8.60458 1.41901C7.59959 1.00273 6.49374 0.893318 5.42685 1.10554C4.35999 1.31777 3.37961 1.84126 2.61044 2.61042C1.84128 3.37958 1.31779 4.35997 1.10556 5.42683C0.893341 6.49372 1.00275 7.59957 1.41904 8.60456C1.83532 9.60954 2.53996 10.469 3.44443 11.0733C4.34885 11.6776 5.41238 12.0001 6.50009 12.0001C7.95802 11.9984 9.35578 11.4185 10.3868 10.3878C11.4179 9.35669 11.9985 7.95823 12.0001 6.50007C12.0001 5.41235 11.6776 4.34883 11.0733 3.4444C10.469 2.53994 9.60956 1.8353 8.60458 1.41901ZM7.00009 6.00007H9.00009V7.00007H7.00009V9.00007H6.00009V7.00007H4.00009V6.00007H6.00009V4.00007H7.00009V6.00007Z" fill="currentColor"/>
</svg>
