<svg width="16" height="16" viewBox="0 0 16 16" fill="none" xmlns="http://www.w3.org/2000/svg">
<path d="M6.09579 0.000948954C7.70625 -0.019803 9.26352 0.579225 10.4454 1.6738C11.627 2.76835 12.3431 4.27508 12.4464 5.88278C12.5496 7.49057 12.0321 9.07665 11.0001 10.3134L16.0001 15.3154L15.3233 16L10.3204 10.9951C9.08482 12.0317 7.49812 12.5534 5.88875 12.4521C4.27933 12.3508 2.76987 11.6345 1.67391 10.4511C0.578008 9.26774 -0.0206438 7.70772 0.00105836 6.0947C0.0228373 4.48162 0.663647 2.93855 1.7911 1.78513C2.94439 0.660467 4.48533 0.0217054 6.09579 0.000948954ZM8.27157 1.31247C7.30024 0.910068 6.2314 0.80457 5.20028 1.00974C4.16903 1.21494 3.22209 1.72204 2.4786 2.46579C1.73514 3.20953 1.22867 4.15686 1.02352 5.18845C0.818387 6.2201 0.923872 7.28989 1.32625 8.26169C1.72866 9.2333 2.41013 10.0641 3.28426 10.6484C4.15843 11.2326 5.18609 11.5449 6.23739 11.5449V11.5488C7.64757 11.5473 8.99939 10.9852 9.99618 9.98728C10.9928 8.9895 11.5532 7.63706 11.5538 6.22653C11.5538 5.17477 11.2423 4.146 10.6583 3.27146C10.0741 2.39686 9.243 1.715 8.27157 1.31247ZM8.65438 6.70993H3.82137V5.74216H8.65438V6.70993Z" fill="currentColor"/>
</svg>
